solid Exported from Blender-2.82 (sub 7)
facet normal 0.418910 0.016647 0.907875
outer loop
vertex 0.000000 -0.539658 2.043030
vertex 0.133329 -0.557776 1.981842
vertex 0.164152 0.192723 1.953858
endloop
endfacet
facet normal 0.992702 0.111093 -0.046912
outer loop
vertex 0.327333 0.477592 1.201648
vertex 0.261263 1.097737 1.272117
vertex 0.335057 0.607903 1.673683
endloop
endfacet
facet normal 0.070082 0.740417 0.668484
outer loop
vertex 0.082757 0.937710 1.918605
vertex 0.108149 1.087702 1.749811
vertex 0.059452 1.009734 1.841274
endloop
endfacet
facet normal 0.948603 0.280168 0.147167
outer loop
vertex 0.359936 -1.321358 1.974849
vertex 0.133329 -0.557776 1.981842
vertex 0.215538 -0.992013 2.278617
endloop
endfacet
facet normal 0.325064 0.478798 0.815528
outer loop
vertex 0.123855 -0.835994 2.167642
vertex 0.000000 -0.539658 2.043030
vertex 0.000000 -0.906345 2.258313
endloop
endfacet
facet normal 0.550714 -0.701954 -0.451635
outer loop
vertex 0.323581 -1.029274 1.123800
vertex 0.270852 -1.535907 1.846939
vertex 0.196444 -1.407927 1.557294
endloop
endfacet
facet normal 0.970636 -0.056182 -0.233900
outer loop
vertex 0.359608 0.383299 1.491539
vertex 0.312712 -0.172619 1.430460
vertex 0.258624 0.196158 1.117427
endloop
endfacet
facet normal -0.155730 0.986668 0.047272
outer loop
vertex 0.060662 1.173612 1.207337
vertex 0.165525 1.183889 1.338289
vertex 0.280297 1.221547 0.930376
endloop
endfacet
facet normal -0.981336 -0.124462 -0.146589
outer loop
vertex 0.166585 0.867075 0.758505
vertex 0.060662 1.173612 1.207337
vertex 0.178051 1.085607 0.496200
endloop
endfacet
facet normal 0.986905 0.089928 0.133905
outer loop
vertex 0.327333 0.477592 1.201648
vertex 0.351990 0.939987 0.709384
vertex 0.261263 1.097737 1.272117
endloop
endfacet
facet normal -0.099018 0.899695 0.425140
outer loop
vertex 0.181895 1.349220 0.637433
vertex 0.170358 1.216315 0.916004
vertex 0.264035 1.351880 0.650935
endloop
endfacet
facet normal 0.778947 0.574446 0.251502
outer loop
vertex 0.261263 1.097737 1.272117
vertex 0.332712 1.290853 0.609739
vertex 0.280297 1.221547 0.930376
endloop
endfacet
facet normal -0.999196 0.029262 -0.027421
outer loop
vertex 0.178051 1.085607 0.496200
vertex 0.170358 1.216315 0.916004
vertex 0.181895 1.349220 0.637433
endloop
endfacet
facet normal 0.270165 0.144515 0.951907
outer loop
vertex 0.000000 -1.524051 2.730493
vertex 0.263707 -1.587063 2.665215
vertex 0.275310 -1.304255 2.618987
endloop
endfacet
facet normal 0.990748 -0.114803 -0.072379
outer loop
vertex 0.374852 -1.480388 2.431265
vertex 0.320494 -1.851961 2.276561
vertex 0.359936 -1.321358 1.974849
endloop
endfacet
facet normal 0.102828 -0.475032 0.873940
outer loop
vertex 0.000000 -1.918361 2.516165
vertex 0.263707 -1.587063 2.665215
vertex 0.000000 -1.524051 2.730493
endloop
endfacet
facet normal 0.889525 -0.384058 0.247476
outer loop
vertex 0.263707 -1.587063 2.665215
vertex 0.182218 -1.906314 2.462673
vertex 0.374852 -1.480388 2.431265
endloop
endfacet
facet normal 0.908958 -0.372659 -0.186868
outer loop
vertex 0.182218 -1.906314 2.462673
vertex 0.031141 -2.235880 2.385037
vertex 0.038413 -2.188101 2.325125
endloop
endfacet
facet normal 0.842196 0.536201 -0.056513
outer loop
vertex 0.432909 -1.536789 2.761328
vertex 0.374852 -1.480388 2.431265
vertex 0.275310 -1.304255 2.618987
endloop
endfacet
facet normal -0.522838 0.158364 0.837593
outer loop
vertex 0.432909 -1.536789 2.761328
vertex 0.275310 -1.304255 2.618987
vertex 0.263707 -1.587063 2.665215
endloop
endfacet
facet normal 0.097179 -0.952862 -0.287420
outer loop
vertex 0.167427 -1.056478 0.946375
vertex 0.142922 -0.883697 0.365281
vertex 0.275394 -1.024392 0.876507
endloop
endfacet
facet normal 0.979923 0.198586 -0.017740
outer loop
vertex 0.323581 -1.029274 1.123800
vertex 0.280314 -0.877881 0.428538
vertex 0.247753 -0.680420 0.840367
endloop
endfacet
facet normal -0.209155 0.973750 0.089807
outer loop
vertex 0.110432 -0.698794 0.719781
vertex 0.090065 -0.710572 0.800052
vertex 0.247753 -0.680420 0.840367
endloop
endfacet
facet normal 0.299895 0.854870 0.423392
outer loop
vertex 0.167794 -1.115821 2.562413
vertex 0.215538 -0.992013 2.278617
vertex 0.000000 -0.906345 2.258313
endloop
endfacet
facet normal 0.985327 0.170632 -0.003909
outer loop
vertex 0.280314 -0.877881 0.428538
vertex 0.253187 -0.724932 0.267131
vertex 0.247753 -0.680420 0.840367
endloop
endfacet
facet normal 0.361232 0.032501 0.931909
outer loop
vertex 0.000000 0.335082 2.012523
vertex 0.000000 -0.539658 2.043030
vertex 0.164152 0.192723 1.953858
endloop
endfacet
facet normal 0.990345 0.030461 -0.135233
outer loop
vertex 0.247753 -0.680420 0.840367
vertex 0.258624 0.196158 1.117427
vertex 0.312712 -0.172619 1.430460
endloop
endfacet
facet normal 0.956226 -0.028413 0.291246
outer loop
vertex 0.164152 0.192723 1.953858
vertex 0.133329 -0.557776 1.981842
vertex 0.312712 -0.172619 1.430460
endloop
endfacet
facet normal 0.663008 0.507292 0.550522
outer loop
vertex 0.260246 1.124088 1.533108
vertex 0.108149 1.087702 1.749811
vertex 0.082757 0.937710 1.918605
endloop
endfacet
facet normal 0.855820 0.249832 0.452942
outer loop
vertex 0.359936 -1.321358 1.974849
vertex 0.312712 -0.172619 1.430460
vertex 0.133329 -0.557776 1.981842
endloop
endfacet
facet normal 0.417095 0.494885 0.762312
outer loop
vertex 0.123855 -0.835994 2.167642
vertex 0.133329 -0.557776 1.981842
vertex 0.000000 -0.539658 2.043030
endloop
endfacet
facet normal 0.393351 -0.317714 0.862747
outer loop
vertex 0.000000 -1.918361 2.516165
vertex 0.000000 -2.258036 2.391077
vertex 0.031141 -2.235880 2.385037
endloop
endfacet
facet normal 0.941419 -0.304592 -0.144753
outer loop
vertex 0.359936 -1.321358 1.974849
vertex 0.270852 -1.535907 1.846939
vertex 0.323581 -1.029274 1.123800
endloop
endfacet
facet normal 0.818700 -0.548370 -0.170356
outer loop
vertex 0.275394 -1.024392 0.876507
vertex 0.280314 -0.877881 0.428538
vertex 0.323581 -1.029274 1.123800
endloop
endfacet
facet normal 0.990003 0.140665 -0.010345
outer loop
vertex 0.335057 0.607903 1.673683
vertex 0.261263 1.097737 1.272117
vertex 0.260246 1.124088 1.533108
endloop
endfacet
facet normal 0.939055 0.333006 0.085341
outer loop
vertex 0.374852 -1.480388 2.431265
vertex 0.359936 -1.321358 1.974849
vertex 0.215538 -0.992013 2.278617
endloop
endfacet
facet normal 0.922629 0.350964 0.159939
outer loop
vertex 0.215538 -0.992013 2.278617
vertex 0.275310 -1.304255 2.618987
vertex 0.374852 -1.480388 2.431265
endloop
endfacet
facet normal 0.757836 0.541619 0.363777
outer loop
vertex 0.167794 -1.115821 2.562413
vertex 0.275310 -1.304255 2.618987
vertex 0.215538 -0.992013 2.278617
endloop
endfacet
facet normal -0.057987 0.555795 0.829295
outer loop
vertex 0.123855 -0.835994 2.167642
vertex 0.215538 -0.992013 2.278617
vertex 0.133329 -0.557776 1.981842
endloop
endfacet
facet normal 0.009667 0.913416 0.406912
outer loop
vertex 0.108149 1.087702 1.749811
vertex 0.000000 1.183982 1.536255
vertex 0.000000 1.066409 1.800178
endloop
endfacet
facet normal 0.049459 0.111980 0.992479
outer loop
vertex 0.000000 0.942950 1.943938
vertex 0.000000 0.335082 2.012523
vertex 0.161307 0.481371 1.987979
endloop
endfacet
facet normal 0.298355 0.193444 0.934646
outer loop
vertex 0.000000 0.942950 1.943938
vertex 0.161307 0.481371 1.987979
vertex 0.082757 0.937710 1.918605
endloop
endfacet
facet normal 0.931060 -0.162965 0.326450
outer loop
vertex 0.359608 0.383299 1.491539
vertex 0.335057 0.607903 1.673683
vertex 0.164152 0.192723 1.953858
endloop
endfacet
facet normal 0.739777 0.618369 0.265234
outer loop
vertex 0.261263 1.097737 1.272117
vertex 0.280297 1.221547 0.930376
vertex 0.165525 1.183889 1.338289
endloop
endfacet
facet normal 0.645698 0.761813 -0.052105
outer loop
vertex 0.332712 1.290853 0.609739
vertex 0.265718 1.319261 0.194885
vertex 0.264035 1.351880 0.650935
endloop
endfacet
facet normal -0.993204 -0.060292 -0.099552
outer loop
vertex 0.178051 1.085607 0.496200
vertex 0.190391 1.333148 0.223167
vertex 0.190596 1.165600 0.322595
endloop
endfacet
facet normal -0.098418 0.899668 0.425337
outer loop
vertex 0.264035 1.351880 0.650935
vertex 0.170358 1.216315 0.916004
vertex 0.280297 1.221547 0.930376
endloop
endfacet
facet normal -0.020556 0.997236 -0.071404
outer loop
vertex 0.181895 1.349220 0.637433
vertex 0.264035 1.351880 0.650935
vertex 0.265718 1.319261 0.194885
endloop
endfacet
facet normal -0.996021 0.044577 0.077171
outer loop
vertex 0.176518 1.129806 0.161571
vertex 0.190596 1.165600 0.322595
vertex 0.190391 1.333148 0.223167
endloop
endfacet
facet normal 0.248433 0.172387 0.953186
outer loop
vertex 0.000000 -1.524051 2.730493
vertex 0.275310 -1.304255 2.618987
vertex 0.000000 -1.170273 2.666511
endloop
endfacet
facet normal 0.801974 -0.325788 0.500700
outer loop
vertex 0.374852 -1.480388 2.431265
vertex 0.182218 -1.906314 2.462673
vertex 0.320494 -1.851961 2.276561
endloop
endfacet
facet normal 0.673826 -0.494571 0.548962
outer loop
vertex 0.000000 0.855865 2.344313
vertex 0.000000 0.656916 2.165076
vertex 0.024460 0.682572 2.158166
endloop
endfacet
facet normal -0.986890 -0.161268 -0.006333
outer loop
vertex 0.167427 -1.056478 0.946375
vertex 0.110432 -0.698794 0.719781
vertex 0.142922 -0.883697 0.365281
endloop
endfacet
facet normal 0.179578 -0.935588 -0.304018
outer loop
vertex 0.142922 -0.883697 0.365281
vertex 0.280314 -0.877881 0.428538
vertex 0.275394 -1.024392 0.876507
endloop
endfacet
facet normal 0.984215 0.042846 0.171710
outer loop
vertex 0.072883 1.077075 2.015119
vertex 0.031219 0.893242 2.299803
vertex 0.063247 0.955069 2.100795
endloop
endfacet
facet normal 0.941016 -0.209061 0.266049
outer loop
vertex 0.031219 0.893242 2.299803
vertex 0.024460 0.682572 2.158166
vertex 0.051816 0.841558 2.186338
endloop
endfacet
facet normal 0.838337 -0.048022 -0.543033
outer loop
vertex 0.024460 0.682572 2.158166
vertex 0.000000 0.684493 2.120235
vertex 0.051816 0.841558 2.186338
endloop
endfacet
facet normal 0.597679 -0.682925 -0.419993
outer loop
vertex 0.024460 0.682572 2.158166
vertex 0.000000 0.656916 2.165076
vertex 0.000000 0.684493 2.120235
endloop
endfacet
facet normal 0.185439 0.696884 0.692795
outer loop
vertex 0.000000 1.066409 1.800178
vertex 0.059452 1.009734 1.841274
vertex 0.108149 1.087702 1.749811
endloop
endfacet
facet normal -0.035141 -0.995225 0.091062
outer loop
vertex 0.000000 0.942950 1.943938
vertex 0.082757 0.937710 1.918605
vertex 0.063247 0.955069 2.100795
endloop
endfacet
facet normal 0.985626 0.026486 0.166853
outer loop
vertex 0.031219 0.893242 2.299803
vertex 0.051816 0.841558 2.186338
vertex 0.063247 0.955069 2.100795
endloop
endfacet
facet normal 0.696161 -0.680680 -0.228111
outer loop
vertex 0.063247 0.955069 2.100795
vertex 0.000000 0.870440 2.160307
vertex 0.000000 0.942950 1.943938
endloop
endfacet
facet normal 0.183686 0.639150 0.746824
outer loop
vertex 0.123855 -0.835994 2.167642
vertex 0.000000 -0.906345 2.258313
vertex 0.215538 -0.992013 2.278617
endloop
endfacet
facet normal 0.999107 0.024896 -0.034135
outer loop
vertex 0.359936 -1.321358 1.974849
vertex 0.323581 -1.029274 1.123800
vertex 0.312712 -0.172619 1.430460
endloop
endfacet
facet normal 0.360357 0.450795 0.816656
outer loop
vertex 0.167794 -1.115821 2.562413
vertex 0.000000 -1.170273 2.666511
vertex 0.275310 -1.304255 2.618987
endloop
endfacet
facet normal -0.063021 0.990592 0.121470
outer loop
vertex 0.060662 1.173612 1.207337
vertex 0.280297 1.221547 0.930376
vertex 0.170358 1.216315 0.916004
endloop
endfacet
facet normal 0.723471 0.640822 0.256781
outer loop
vertex 0.264035 1.351880 0.650935
vertex 0.280297 1.221547 0.930376
vertex 0.332712 1.290853 0.609739
endloop
endfacet
facet normal -0.771413 0.603417 -0.202013
outer loop
vertex 0.060662 1.173612 1.207337
vertex 0.170358 1.216315 0.916004
vertex 0.178051 1.085607 0.496200
endloop
endfacet
facet normal 0.247419 -0.111338 0.962490
outer loop
vertex 0.161307 0.481371 1.987979
vertex 0.000000 0.335082 2.012523
vertex 0.164152 0.192723 1.953858
endloop
endfacet
facet normal 0.882061 -0.046725 0.468813
outer loop
vertex 0.164152 0.192723 1.953858
vertex 0.335057 0.607903 1.673683
vertex 0.161307 0.481371 1.987979
endloop
endfacet
facet normal 0.812819 0.221797 0.538638
outer loop
vertex 0.161307 0.481371 1.987979
vertex 0.335057 0.607903 1.673683
vertex 0.082757 0.937710 1.918605
endloop
endfacet
facet normal 0.824746 0.256749 0.503858
outer loop
vertex 0.260246 1.124088 1.533108
vertex 0.082757 0.937710 1.918605
vertex 0.335057 0.607903 1.673683
endloop
endfacet
facet normal 0.982355 0.073958 -0.171785
outer loop
vertex 0.247753 -0.680420 0.840367
vertex 0.312712 -0.172619 1.430460
vertex 0.323581 -1.029274 1.123800
endloop
endfacet
facet normal 0.935110 -0.225120 -0.273661
outer loop
vertex 0.270852 -1.535907 1.846939
vertex 0.359936 -1.321358 1.974849
vertex 0.320494 -1.851961 2.276561
endloop
endfacet
facet normal 0.637932 0.766442 -0.074899
outer loop
vertex 0.261263 1.097737 1.272117
vertex 0.165525 1.183889 1.338289
vertex 0.260246 1.124088 1.533108
endloop
endfacet
facet normal -0.979955 -0.060876 -0.189690
outer loop
vertex 0.060662 1.173612 1.207337
vertex 0.166585 0.867075 0.758505
vertex 0.126643 0.557162 1.064308
endloop
endfacet
facet normal -0.999428 0.026097 -0.021509
outer loop
vertex 0.178051 1.085607 0.496200
vertex 0.181895 1.349220 0.637433
vertex 0.190391 1.333148 0.223167
endloop
endfacet
facet normal 0.266718 -0.563929 0.781566
outer loop
vertex 0.263707 -1.587063 2.665215
vertex 0.000000 -1.918361 2.516165
vertex 0.182218 -1.906314 2.462673
endloop
endfacet
facet normal -0.064740 0.994860 -0.077865
outer loop
vertex 0.253187 -0.724932 0.267131
vertex 0.110432 -0.698794 0.719781
vertex 0.247753 -0.680420 0.840367
endloop
endfacet
facet normal -0.042834 0.996552 -0.071054
outer loop
vertex 0.110432 -0.698794 0.719781
vertex 0.253187 -0.724932 0.267131
vertex 0.112538 -0.730999 0.266829
endloop
endfacet
facet normal -0.906152 -0.319766 -0.276835
outer loop
vertex 0.167427 -1.056478 0.946375
vertex 0.090065 -0.710572 0.800052
vertex 0.110432 -0.698794 0.719781
endloop
endfacet
facet normal -0.049276 -0.979154 0.197051
outer loop
vertex 0.142922 -0.883697 0.365281
vertex 0.266643 -0.918074 0.225398
vertex 0.280314 -0.877881 0.428538
endloop
endfacet
facet normal 0.976200 0.165897 -0.139682
outer loop
vertex 0.082757 0.937710 1.918605
vertex 0.059452 1.009734 1.841274
vertex 0.072883 1.077075 2.015119
endloop
endfacet
facet normal 0.061881 -0.604657 -0.794078
outer loop
vertex 0.051816 0.841558 2.186338
vertex 0.000000 0.870440 2.160307
vertex 0.063247 0.955069 2.100795
endloop
endfacet
facet normal 0.519836 0.179966 -0.835095
outer loop
vertex 0.000000 0.684493 2.120235
vertex 0.000000 0.870440 2.160307
vertex 0.051816 0.841558 2.186338
endloop
endfacet
facet normal 0.994273 -0.003524 0.106808
outer loop
vertex 0.082757 0.937710 1.918605
vertex 0.072883 1.077075 2.015119
vertex 0.063247 0.955069 2.100795
endloop
endfacet
facet normal -0.418910 0.016647 0.907875
outer loop
vertex 0.000000 -0.539658 2.043030
vertex -0.164152 0.192723 1.953858
vertex -0.133329 -0.557776 1.981842
endloop
endfacet
facet normal -0.992702 0.111093 -0.046912
outer loop
vertex -0.335057 0.607903 1.673683
vertex -0.261263 1.097737 1.272117
vertex -0.327333 0.477592 1.201648
endloop
endfacet
facet normal -0.070082 0.740417 0.668484
outer loop
vertex -0.082757 0.937710 1.918605
vertex -0.059452 1.009734 1.841274
vertex -0.108149 1.087702 1.749811
endloop
endfacet
facet normal -0.948603 0.280168 0.147167
outer loop
vertex -0.359936 -1.321358 1.974849
vertex -0.215538 -0.992013 2.278617
vertex -0.133329 -0.557776 1.981842
endloop
endfacet
facet normal -0.325064 0.478798 0.815528
outer loop
vertex -0.123855 -0.835994 2.167642
vertex 0.000000 -0.906345 2.258313
vertex 0.000000 -0.539658 2.043030
endloop
endfacet
facet normal -0.550714 -0.701954 -0.451635
outer loop
vertex -0.323581 -1.029274 1.123800
vertex -0.196444 -1.407927 1.557294
vertex -0.270852 -1.535907 1.846939
endloop
endfacet
facet normal -0.970636 -0.056182 -0.233900
outer loop
vertex -0.258624 0.196158 1.117427
vertex -0.312712 -0.172619 1.430460
vertex -0.359608 0.383299 1.491539
endloop
endfacet
facet normal 0.155730 0.986668 0.047272
outer loop
vertex -0.060662 1.173612 1.207337
vertex -0.280297 1.221547 0.930376
vertex -0.165525 1.183889 1.338289
endloop
endfacet
facet normal 0.981336 -0.124462 -0.146589
outer loop
vertex -0.166585 0.867075 0.758505
vertex -0.178051 1.085607 0.496200
vertex -0.060662 1.173612 1.207337
endloop
endfacet
facet normal -0.986905 0.089928 0.133905
outer loop
vertex -0.327333 0.477592 1.201648
vertex -0.261263 1.097737 1.272117
vertex -0.351990 0.939987 0.709384
endloop
endfacet
facet normal 0.099018 0.899695 0.425140
outer loop
vertex -0.181895 1.349220 0.637433
vertex -0.264035 1.351880 0.650935
vertex -0.170358 1.216315 0.916004
endloop
endfacet
facet normal -0.778947 0.574446 0.251502
outer loop
vertex -0.261263 1.097737 1.272117
vertex -0.280297 1.221547 0.930376
vertex -0.332712 1.290853 0.609739
endloop
endfacet
facet normal 0.999196 0.029262 -0.027421
outer loop
vertex -0.178051 1.085607 0.496200
vertex -0.181895 1.349220 0.637433
vertex -0.170358 1.216315 0.916004
endloop
endfacet
facet normal -0.270165 0.144515 0.951907
outer loop
vertex 0.000000 -1.524051 2.730493
vertex -0.275310 -1.304255 2.618987
vertex -0.263707 -1.587063 2.665215
endloop
endfacet
facet normal -0.990748 -0.114803 -0.072379
outer loop
vertex -0.374852 -1.480388 2.431265
vertex -0.359936 -1.321358 1.974849
vertex -0.320494 -1.851961 2.276561
endloop
endfacet
facet normal -0.102828 -0.475032 0.873940
outer loop
vertex 0.000000 -1.918361 2.516165
vertex 0.000000 -1.524051 2.730493
vertex -0.263707 -1.587063 2.665215
endloop
endfacet
facet normal -0.889525 -0.384058 0.247476
outer loop
vertex -0.263707 -1.587063 2.665215
vertex -0.374852 -1.480388 2.431265
vertex -0.182218 -1.906314 2.462673
endloop
endfacet
facet normal -0.908958 -0.372659 -0.186868
outer loop
vertex -0.182218 -1.906314 2.462673
vertex -0.038413 -2.188101 2.325125
vertex -0.031141 -2.235880 2.385037
endloop
endfacet
facet normal -0.842196 0.536201 -0.056513
outer loop
vertex -0.432909 -1.536789 2.761328
vertex -0.275310 -1.304255 2.618987
vertex -0.374852 -1.480388 2.431265
endloop
endfacet
facet normal 0.522838 0.158364 0.837593
outer loop
vertex -0.432909 -1.536789 2.761328
vertex -0.263707 -1.587063 2.665215
vertex -0.275310 -1.304255 2.618987
endloop
endfacet
facet normal -0.097179 -0.952862 -0.287420
outer loop
vertex -0.167427 -1.056478 0.946375
vertex -0.275394 -1.024392 0.876507
vertex -0.142922 -0.883697 0.365281
endloop
endfacet
facet normal -0.979923 0.198586 -0.017740
outer loop
vertex -0.323581 -1.029274 1.123800
vertex -0.247753 -0.680420 0.840367
vertex -0.280314 -0.877881 0.428538
endloop
endfacet
facet normal 0.209155 0.973750 0.089807
outer loop
vertex -0.110432 -0.698794 0.719781
vertex -0.247753 -0.680420 0.840367
vertex -0.090065 -0.710572 0.800052
endloop
endfacet
facet normal -0.299895 0.854870 0.423392
outer loop
vertex 0.000000 -0.906345 2.258313
vertex -0.215538 -0.992013 2.278617
vertex -0.167794 -1.115821 2.562413
endloop
endfacet
facet normal -0.985327 0.170632 -0.003909
outer loop
vertex -0.280314 -0.877881 0.428538
vertex -0.247753 -0.680420 0.840367
vertex -0.253187 -0.724932 0.267131
endloop
endfacet
facet normal -0.361232 0.032501 0.931909
outer loop
vertex 0.000000 0.335082 2.012523
vertex -0.164152 0.192723 1.953858
vertex 0.000000 -0.539658 2.043030
endloop
endfacet
facet normal -0.990345 0.030461 -0.135233
outer loop
vertex -0.247753 -0.680420 0.840367
vertex -0.312712 -0.172619 1.430460
vertex -0.258624 0.196158 1.117427
endloop
endfacet
facet normal -0.956226 -0.028413 0.291246
outer loop
vertex -0.164152 0.192723 1.953858
vertex -0.312712 -0.172619 1.430460
vertex -0.133329 -0.557776 1.981842
endloop
endfacet
facet normal -0.663008 0.507292 0.550522
outer loop
vertex -0.260246 1.124088 1.533108
vertex -0.082757 0.937710 1.918605
vertex -0.108149 1.087702 1.749811
endloop
endfacet
facet normal -0.855820 0.249832 0.452942
outer loop
vertex -0.359936 -1.321358 1.974849
vertex -0.133329 -0.557776 1.981842
vertex -0.312712 -0.172619 1.430460
endloop
endfacet
facet normal -0.417095 0.494885 0.762312
outer loop
vertex -0.123855 -0.835994 2.167642
vertex 0.000000 -0.539658 2.043030
vertex -0.133329 -0.557776 1.981842
endloop
endfacet
facet normal -0.285446 -0.341775 0.895383
outer loop
vertex 0.000000 -1.918361 2.516165
vertex -0.182218 -1.906314 2.462673
vertex -0.031141 -2.235880 2.385037
endloop
endfacet
facet normal -0.941419 -0.304592 -0.144753
outer loop
vertex -0.359936 -1.321358 1.974849
vertex -0.323581 -1.029274 1.123800
vertex -0.270852 -1.535907 1.846939
endloop
endfacet
facet normal -0.818700 -0.548370 -0.170356
outer loop
vertex -0.275394 -1.024392 0.876507
vertex -0.323581 -1.029274 1.123800
vertex -0.280314 -0.877881 0.428538
endloop
endfacet
facet normal -0.990003 0.140665 -0.010345
outer loop
vertex -0.335057 0.607903 1.673683
vertex -0.260246 1.124088 1.533108
vertex -0.261263 1.097737 1.272117
endloop
endfacet
facet normal -0.939055 0.333006 0.085341
outer loop
vertex -0.374852 -1.480388 2.431265
vertex -0.215538 -0.992013 2.278617
vertex -0.359936 -1.321358 1.974849
endloop
endfacet
facet normal -0.922629 0.350964 0.159939
outer loop
vertex -0.215538 -0.992013 2.278617
vertex -0.374852 -1.480388 2.431265
vertex -0.275310 -1.304255 2.618987
endloop
endfacet
facet normal -0.757836 0.541619 0.363777
outer loop
vertex -0.167794 -1.115821 2.562413
vertex -0.215538 -0.992013 2.278617
vertex -0.275310 -1.304255 2.618987
endloop
endfacet
facet normal 0.057987 0.555795 0.829295
outer loop
vertex -0.123855 -0.835994 2.167642
vertex -0.133329 -0.557776 1.981842
vertex -0.215538 -0.992013 2.278617
endloop
endfacet
facet normal -0.009667 0.913416 0.406912
outer loop
vertex -0.108149 1.087702 1.749811
vertex 0.000000 1.066409 1.800178
vertex 0.000000 1.183982 1.536255
endloop
endfacet
facet normal -0.049459 0.111980 0.992479
outer loop
vertex 0.000000 0.942950 1.943938
vertex -0.161307 0.481371 1.987979
vertex 0.000000 0.335082 2.012523
endloop
endfacet
facet normal -0.298355 0.193444 0.934646
outer loop
vertex 0.000000 0.942950 1.943938
vertex -0.082757 0.937710 1.918605
vertex -0.161307 0.481371 1.987979
endloop
endfacet
facet normal -0.931113 -0.116520 0.345618
outer loop
vertex -0.359608 0.383299 1.491539
vertex -0.312712 -0.172619 1.430460
vertex -0.164152 0.192723 1.953858
endloop
endfacet
facet normal -0.739777 0.618369 0.265234
outer loop
vertex -0.261263 1.097737 1.272117
vertex -0.165525 1.183889 1.338289
vertex -0.280297 1.221547 0.930376
endloop
endfacet
facet normal -0.645698 0.761813 -0.052105
outer loop
vertex -0.332712 1.290853 0.609739
vertex -0.264035 1.351880 0.650935
vertex -0.265718 1.319261 0.194885
endloop
endfacet
facet normal 0.993204 -0.060292 -0.099552
outer loop
vertex -0.178051 1.085607 0.496200
vertex -0.190596 1.165600 0.322595
vertex -0.190391 1.333148 0.223167
endloop
endfacet
facet normal 0.098418 0.899668 0.425337
outer loop
vertex -0.264035 1.351880 0.650935
vertex -0.280297 1.221547 0.930376
vertex -0.170358 1.216315 0.916004
endloop
endfacet
facet normal 0.020556 0.997236 -0.071404
outer loop
vertex -0.181895 1.349220 0.637433
vertex -0.265718 1.319261 0.194885
vertex -0.264035 1.351880 0.650935
endloop
endfacet
facet normal 0.996021 0.044577 0.077171
outer loop
vertex -0.176518 1.129806 0.161571
vertex -0.190391 1.333148 0.223167
vertex -0.190596 1.165600 0.322595
endloop
endfacet
facet normal -0.248433 0.172387 0.953186
outer loop
vertex 0.000000 -1.524051 2.730493
vertex 0.000000 -1.170273 2.666511
vertex -0.275310 -1.304255 2.618987
endloop
endfacet
facet normal -0.801974 -0.325788 0.500700
outer loop
vertex -0.374852 -1.480388 2.431265
vertex -0.320494 -1.851961 2.276561
vertex -0.182218 -1.906314 2.462673
endloop
endfacet
facet normal -0.880639 -0.283481 0.379622
outer loop
vertex 0.000000 0.855865 2.344313
vertex -0.031219 0.893242 2.299803
vertex -0.024460 0.682572 2.158166
endloop
endfacet
facet normal 0.986890 -0.161268 -0.006333
outer loop
vertex -0.167427 -1.056478 0.946375
vertex -0.142922 -0.883697 0.365281
vertex -0.110432 -0.698794 0.719781
endloop
endfacet
facet normal -0.179578 -0.935588 -0.304018
outer loop
vertex -0.142922 -0.883697 0.365281
vertex -0.275394 -1.024392 0.876507
vertex -0.280314 -0.877881 0.428538
endloop
endfacet
facet normal -0.984215 0.042846 0.171710
outer loop
vertex -0.072883 1.077075 2.015119
vertex -0.063247 0.955069 2.100795
vertex -0.031219 0.893242 2.299803
endloop
endfacet
facet normal -0.941016 -0.209061 0.266049
outer loop
vertex -0.031219 0.893242 2.299803
vertex -0.051816 0.841558 2.186338
vertex -0.024460 0.682572 2.158166
endloop
endfacet
facet normal -0.838337 -0.048022 -0.543033
outer loop
vertex -0.024460 0.682572 2.158166
vertex -0.051816 0.841558 2.186338
vertex 0.000000 0.684493 2.120235
endloop
endfacet
facet normal -0.597679 -0.682925 -0.419993
outer loop
vertex -0.024460 0.682572 2.158166
vertex 0.000000 0.684493 2.120235
vertex 0.000000 0.656916 2.165076
endloop
endfacet
facet normal -0.185439 0.696884 0.692795
outer loop
vertex 0.000000 1.066409 1.800178
vertex -0.108149 1.087702 1.749811
vertex -0.059452 1.009734 1.841274
endloop
endfacet
facet normal 0.035141 -0.995225 0.091062
outer loop
vertex 0.000000 0.942950 1.943938
vertex -0.063247 0.955069 2.100795
vertex -0.082757 0.937710 1.918605
endloop
endfacet
facet normal -0.985626 0.026486 0.166853
outer loop
vertex -0.031219 0.893242 2.299803
vertex -0.063247 0.955069 2.100795
vertex -0.051816 0.841558 2.186338
endloop
endfacet
facet normal -0.696161 -0.680680 -0.228111
outer loop
vertex -0.063247 0.955069 2.100795
vertex 0.000000 0.942950 1.943938
vertex 0.000000 0.870440 2.160307
endloop
endfacet
facet normal -0.183686 0.639150 0.746824
outer loop
vertex -0.123855 -0.835994 2.167642
vertex -0.215538 -0.992013 2.278617
vertex 0.000000 -0.906345 2.258313
endloop
endfacet
facet normal -0.999107 0.024896 -0.034135
outer loop
vertex -0.359936 -1.321358 1.974849
vertex -0.312712 -0.172619 1.430460
vertex -0.323581 -1.029274 1.123800
endloop
endfacet
facet normal -0.360357 0.450795 0.816656
outer loop
vertex -0.167794 -1.115821 2.562413
vertex -0.275310 -1.304255 2.618987
vertex 0.000000 -1.170273 2.666511
endloop
endfacet
facet normal 0.063021 0.990592 0.121470
outer loop
vertex -0.060662 1.173612 1.207337
vertex -0.170358 1.216315 0.916004
vertex -0.280297 1.221547 0.930376
endloop
endfacet
facet normal -0.723471 0.640822 0.256781
outer loop
vertex -0.264035 1.351880 0.650935
vertex -0.332712 1.290853 0.609739
vertex -0.280297 1.221547 0.930376
endloop
endfacet
facet normal 0.771413 0.603417 -0.202013
outer loop
vertex -0.060662 1.173612 1.207337
vertex -0.178051 1.085607 0.496200
vertex -0.170358 1.216315 0.916004
endloop
endfacet
facet normal -0.247419 -0.111338 0.962490
outer loop
vertex -0.161307 0.481371 1.987979
vertex -0.164152 0.192723 1.953858
vertex 0.000000 0.335082 2.012523
endloop
endfacet
facet normal -0.882061 -0.046725 0.468813
outer loop
vertex -0.164152 0.192723 1.953858
vertex -0.161307 0.481371 1.987979
vertex -0.335057 0.607903 1.673683
endloop
endfacet
facet normal -0.812819 0.221797 0.538638
outer loop
vertex -0.161307 0.481371 1.987979
vertex -0.082757 0.937710 1.918605
vertex -0.335057 0.607903 1.673683
endloop
endfacet
facet normal -0.824746 0.256749 0.503858
outer loop
vertex -0.260246 1.124088 1.533108
vertex -0.335057 0.607903 1.673683
vertex -0.082757 0.937710 1.918605
endloop
endfacet
facet normal -0.982355 0.073958 -0.171785
outer loop
vertex -0.247753 -0.680420 0.840367
vertex -0.323581 -1.029274 1.123800
vertex -0.312712 -0.172619 1.430460
endloop
endfacet
facet normal -0.935110 -0.225120 -0.273661
outer loop
vertex -0.270852 -1.535907 1.846939
vertex -0.320494 -1.851961 2.276561
vertex -0.359936 -1.321358 1.974849
endloop
endfacet
facet normal -0.637932 0.766442 -0.074899
outer loop
vertex -0.261263 1.097737 1.272117
vertex -0.260246 1.124088 1.533108
vertex -0.165525 1.183889 1.338289
endloop
endfacet
facet normal 0.979955 -0.060876 -0.189690
outer loop
vertex -0.060662 1.173612 1.207337
vertex -0.126643 0.557162 1.064308
vertex -0.166585 0.867075 0.758505
endloop
endfacet
facet normal 0.999428 0.026097 -0.021509
outer loop
vertex -0.178051 1.085607 0.496200
vertex -0.190391 1.333148 0.223167
vertex -0.181895 1.349220 0.637433
endloop
endfacet
facet normal -0.266718 -0.563929 0.781566
outer loop
vertex -0.263707 -1.587063 2.665215
vertex -0.182218 -1.906314 2.462673
vertex 0.000000 -1.918361 2.516165
endloop
endfacet
facet normal 0.064740 0.994860 -0.077865
outer loop
vertex -0.253187 -0.724932 0.267131
vertex -0.247753 -0.680420 0.840367
vertex -0.110432 -0.698794 0.719781
endloop
endfacet
facet normal 0.042834 0.996552 -0.071054
outer loop
vertex -0.110432 -0.698794 0.719781
vertex -0.112538 -0.730999 0.266829
vertex -0.253187 -0.724932 0.267131
endloop
endfacet
facet normal 0.906152 -0.319766 -0.276835
outer loop
vertex -0.167427 -1.056478 0.946375
vertex -0.110432 -0.698794 0.719781
vertex -0.090065 -0.710572 0.800052
endloop
endfacet
facet normal 0.049276 -0.979154 0.197051
outer loop
vertex -0.142922 -0.883697 0.365281
vertex -0.280314 -0.877881 0.428538
vertex -0.266643 -0.918074 0.225398
endloop
endfacet
facet normal -0.976200 0.165897 -0.139682
outer loop
vertex -0.082757 0.937710 1.918605
vertex -0.072883 1.077075 2.015119
vertex -0.059452 1.009734 1.841274
endloop
endfacet
facet normal -0.061881 -0.604657 -0.794078
outer loop
vertex -0.051816 0.841558 2.186338
vertex -0.063247 0.955069 2.100795
vertex 0.000000 0.870440 2.160307
endloop
endfacet
facet normal -0.519836 0.179966 -0.835095
outer loop
vertex 0.000000 0.684493 2.120235
vertex -0.051816 0.841558 2.186338
vertex 0.000000 0.870440 2.160307
endloop
endfacet
facet normal -0.994273 -0.003524 0.106808
outer loop
vertex -0.082757 0.937710 1.918605
vertex -0.063247 0.955069 2.100795
vertex -0.072883 1.077075 2.015119
endloop
endfacet
facet normal 0.986029 0.155729 -0.059125
outer loop
vertex 0.359608 0.383299 1.491539
vertex 0.327333 0.477592 1.201648
vertex 0.335057 0.607903 1.673683
endloop
endfacet
facet normal 0.968037 -0.185980 -0.168270
outer loop
vertex 0.327333 0.477592 1.201648
vertex 0.359608 0.383299 1.491539
vertex 0.258624 0.196158 1.117427
endloop
endfacet
facet normal 0.064196 0.838026 0.541841
outer loop
vertex 0.000000 -1.170273 2.666511
vertex 0.167794 -1.115821 2.562413
vertex 0.000000 -0.906345 2.258313
endloop
endfacet
facet normal 0.285446 -0.341775 0.895383
outer loop
vertex 0.182218 -1.906314 2.462673
vertex 0.000000 -1.918361 2.516165
vertex 0.031141 -2.235880 2.385037
endloop
endfacet
facet normal 0.931113 -0.116520 0.345618
outer loop
vertex 0.312712 -0.172619 1.430460
vertex 0.359608 0.383299 1.491539
vertex 0.164152 0.192723 1.953858
endloop
endfacet
facet normal 0.880639 -0.283481 0.379622
outer loop
vertex 0.031219 0.893242 2.299803
vertex 0.000000 0.855865 2.344313
vertex 0.024460 0.682572 2.158166
endloop
endfacet
facet normal -0.986029 0.155729 -0.059125
outer loop
vertex -0.359608 0.383299 1.491539
vertex -0.335057 0.607903 1.673683
vertex -0.327333 0.477592 1.201648
endloop
endfacet
facet normal -0.968037 -0.185980 -0.168270
outer loop
vertex -0.327333 0.477592 1.201648
vertex -0.258624 0.196158 1.117427
vertex -0.359608 0.383299 1.491539
endloop
endfacet
facet normal -0.064196 0.838026 0.541841
outer loop
vertex 0.000000 -1.170273 2.666511
vertex 0.000000 -0.906345 2.258313
vertex -0.167794 -1.115821 2.562413
endloop
endfacet
facet normal -0.393351 -0.317714 0.862747
outer loop
vertex 0.000000 -2.258036 2.391077
vertex 0.000000 -1.918361 2.516165
vertex -0.031141 -2.235880 2.385037
endloop
endfacet
facet normal -0.931060 -0.162965 0.326450
outer loop
vertex -0.335057 0.607903 1.673683
vertex -0.359608 0.383299 1.491539
vertex -0.164152 0.192723 1.953858
endloop
endfacet
facet normal -0.673826 -0.494570 0.548961
outer loop
vertex 0.000000 0.656916 2.165076
vertex 0.000000 0.855865 2.344313
vertex -0.024460 0.682572 2.158166
endloop
endfacet
facet normal 0.247337 0.221870 -0.943185
outer loop
vertex 0.258624 0.196158 1.117427
vertex 0.079650 0.468378 1.134529
vertex 0.327333 0.477592 1.201648
endloop
endfacet
facet normal -0.633236 0.062592 -0.771424
outer loop
vertex 0.060662 1.173612 1.207337
vertex 0.079650 0.468378 1.134529
vertex 0.000000 1.097438 1.250952
endloop
endfacet
facet normal 0.314963 0.211133 -0.925322
outer loop
vertex 0.079650 0.468378 1.134529
vertex 0.000000 0.404034 1.092736
vertex 0.000000 1.097438 1.250952
endloop
endfacet
facet normal -0.777467 0.303861 -0.550649
outer loop
vertex 0.000000 1.196901 1.305838
vertex 0.060662 1.173612 1.207337
vertex 0.000000 1.097438 1.250952
endloop
endfacet
facet normal 0.222515 0.957100 0.185601
outer loop
vertex 0.165525 1.183889 1.338289
vertex 0.000000 1.183982 1.536255
vertex 0.260246 1.124088 1.533108
endloop
endfacet
facet normal 0.992626 0.087323 -0.084080
outer loop
vertex 0.253187 -0.724932 0.267131
vertex 0.280314 -0.877881 0.428538
vertex 0.266643 -0.918074 0.225398
endloop
endfacet
facet normal 0.525491 -0.726447 -0.442870
outer loop
vertex 0.000000 -1.534343 1.531564
vertex 0.167427 -1.056478 0.946375
vertex 0.196444 -1.407927 1.557294
endloop
endfacet
facet normal 0.232210 0.081531 -0.969243
outer loop
vertex 0.247753 -0.680420 0.840367
vertex 0.090065 -0.710572 0.800052
vertex 0.000000 -0.492645 0.796806
endloop
endfacet
facet normal 0.216562 -0.673562 -0.706693
outer loop
vertex 0.126643 0.557162 1.064308
vertex 0.327333 0.477592 1.201648
vertex 0.079650 0.468378 1.134529
endloop
endfacet
facet normal 0.888134 0.445496 -0.112917
outer loop
vertex 0.265718 1.319261 0.194885
vertex 0.332712 1.290853 0.609739
vertex 0.295985 1.227033 0.069075
endloop
endfacet
facet normal 0.016441 -0.976344 0.215595
outer loop
vertex 0.190596 1.165600 0.322595
vertex 0.176518 1.129806 0.161571
vertex 0.294504 1.133257 0.168202
endloop
endfacet
facet normal 0.168555 0.985079 -0.034760
outer loop
vertex 0.190391 1.333148 0.223167
vertex 0.181895 1.349220 0.637433
vertex 0.265718 1.319261 0.194885
endloop
endfacet
facet normal 0.998314 0.057359 0.008830
outer loop
vertex 0.332712 1.290853 0.609739
vertex 0.351990 0.939987 0.709384
vertex 0.341785 1.167379 0.386025
endloop
endfacet
facet normal 0.679482 0.157231 -0.716646
outer loop
vertex 0.227988 1.206048 0.000000
vertex 0.295985 1.227033 0.069075
vertex 0.271589 1.017624 0.000000
endloop
endfacet
facet normal -0.242338 -0.627665 0.739803
outer loop
vertex 0.201187 0.971033 0.000000
vertex 0.259297 0.948597 0.000000
vertex 0.294504 1.133257 0.168202
endloop
endfacet
facet normal -0.018405 -0.714538 0.699354
outer loop
vertex 0.201187 0.971033 0.000000
vertex 0.294504 1.133257 0.168202
vertex 0.176518 1.129806 0.161571
endloop
endfacet
facet normal 0.668049 -0.498582 -0.552383
outer loop
vertex 0.000000 -2.249737 2.334301
vertex 0.000000 -1.991491 2.101209
vertex 0.038413 -2.188101 2.325125
endloop
endfacet
facet normal 0.765100 -0.501167 -0.404293
outer loop
vertex 0.320494 -1.851961 2.276561
vertex 0.179119 -1.991715 2.182258
vertex 0.269675 -1.726648 2.025049
endloop
endfacet
facet normal 0.391203 -0.893263 -0.221451
outer loop
vertex 0.263707 -1.587063 2.665215
vertex 0.374852 -1.480388 2.431265
vertex 0.432909 -1.536789 2.761328
endloop
endfacet
facet normal -0.981818 -0.189614 0.008917
outer loop
vertex 0.112538 -0.730999 0.266829
vertex 0.142922 -0.883697 0.365281
vertex 0.110432 -0.698794 0.719781
endloop
endfacet
facet normal 0.871555 -0.108866 -0.478059
outer loop
vertex 0.221129 -1.165707 -0.000000
vertex 0.249677 -0.937159 -0.000000
vertex 0.279323 -1.004253 0.069327
endloop
endfacet
facet normal 0.252103 -0.864235 0.435365
outer loop
vertex 0.266643 -0.918074 0.225398
vertex 0.142922 -0.883697 0.365281
vertex 0.136846 -1.034779 0.068890
endloop
endfacet
facet normal 0.181593 -0.854537 0.486611
outer loop
vertex 0.136846 -1.034779 0.068890
vertex 0.279323 -1.004253 0.069327
vertex 0.266643 -0.918074 0.225398
endloop
endfacet
facet normal 0.000000 0.000000 -1.000000
outer loop
vertex 0.141957 -1.160737 -0.000000
vertex 0.249677 -0.937159 -0.000000
vertex 0.221129 -1.165707 -0.000000
endloop
endfacet
facet normal 0.286576 0.246574 -0.925784
outer loop
vertex 0.000000 0.404034 1.092736
vertex 0.079650 0.468378 1.134529
vertex 0.258624 0.196158 1.117427
endloop
endfacet
facet normal 0.360246 0.345258 -0.866614
outer loop
vertex 0.000000 0.404034 1.092736
vertex 0.258624 0.196158 1.117427
vertex 0.209109 -0.273690 0.909657
endloop
endfacet
facet normal 0.306610 0.188088 -0.933067
outer loop
vertex 0.247753 -0.680420 0.840367
vertex 0.000000 -0.492645 0.796806
vertex 0.209109 -0.273690 0.909657
endloop
endfacet
facet normal 0.523598 -0.721391 -0.453256
outer loop
vertex 0.000000 -1.534343 1.531564
vertex 0.196444 -1.407927 1.557294
vertex 0.270852 -1.535907 1.846939
endloop
endfacet
facet normal 0.854542 -0.488596 -0.176160
outer loop
vertex 0.196444 -1.407927 1.557294
vertex 0.275394 -1.024392 0.876507
vertex 0.323581 -1.029274 1.123800
endloop
endfacet
facet normal 0.114122 -0.902982 -0.414245
outer loop
vertex 0.000000 -1.720714 1.937820
vertex 0.000000 -1.534343 1.531564
vertex 0.269675 -1.726648 2.025049
endloop
endfacet
facet normal -0.402056 -0.179535 -0.897841
outer loop
vertex 0.000000 -1.094686 0.917192
vertex 0.000000 -0.492645 0.796806
vertex 0.090065 -0.710572 0.800052
endloop
endfacet
facet normal 0.109305 0.980308 -0.164462
outer loop
vertex 0.165525 1.183889 1.338289
vertex 0.060662 1.173612 1.207337
vertex 0.000000 1.196901 1.305838
endloop
endfacet
facet normal -0.848693 0.031654 -0.527938
outer loop
vertex 0.079650 0.468378 1.134529
vertex 0.060662 1.173612 1.207337
vertex 0.126643 0.557162 1.064308
endloop
endfacet
facet normal 0.181274 0.308210 -0.933888
outer loop
vertex 0.000000 -0.492645 0.796806
vertex 0.000000 0.404034 1.092736
vertex 0.209109 -0.273690 0.909657
endloop
endfacet
facet normal 0.091156 -0.705375 -0.702949
outer loop
vertex 0.166585 0.867075 0.758505
vertex 0.351990 0.939987 0.709384
vertex 0.126643 0.557162 1.064308
endloop
endfacet
facet normal 0.133410 -0.764293 -0.630918
outer loop
vertex 0.178051 1.085607 0.496200
vertex 0.351990 0.939987 0.709384
vertex 0.166585 0.867075 0.758505
endloop
endfacet
facet normal 0.178829 -0.898430 -0.401052
outer loop
vertex 0.341785 1.167379 0.386025
vertex 0.178051 1.085607 0.496200
vertex 0.190596 1.165600 0.322595
endloop
endfacet
facet normal -0.960674 0.138454 -0.240698
outer loop
vertex 0.190391 1.333148 0.223167
vertex 0.227988 1.206048 0.000000
vertex 0.176518 1.129806 0.161571
endloop
endfacet
facet normal 0.282050 0.804856 -0.522163
outer loop
vertex 0.295985 1.227033 0.069075
vertex 0.227988 1.206048 0.000000
vertex 0.265718 1.319261 0.194885
endloop
endfacet
facet normal 0.993152 -0.091915 -0.072114
outer loop
vertex 0.294504 1.133257 0.168202
vertex 0.271589 1.017624 0.000000
vertex 0.295985 1.227033 0.069075
endloop
endfacet
facet normal -0.960874 0.109578 -0.254388
outer loop
vertex 0.201187 0.971033 0.000000
vertex 0.176518 1.129806 0.161571
vertex 0.227988 1.206048 0.000000
endloop
endfacet
facet normal -0.000000 0.000000 -1.000000
outer loop
vertex 0.201187 0.971033 0.000000
vertex 0.271589 1.017624 0.000000
vertex 0.259297 0.948597 0.000000
endloop
endfacet
facet normal 0.256683 -0.499330 -0.827516
outer loop
vertex 0.000000 -1.720714 1.937820
vertex 0.269675 -1.726648 2.025049
vertex 0.000000 -1.991491 2.101209
endloop
endfacet
facet normal 0.734414 -0.561149 0.381769
outer loop
vertex 0.182218 -1.906314 2.462673
vertex 0.038413 -2.188101 2.325125
vertex 0.320494 -1.851961 2.276561
endloop
endfacet
facet normal 0.745259 -0.648065 -0.156848
outer loop
vertex 0.038413 -2.188101 2.325125
vertex 0.179119 -1.991715 2.182258
vertex 0.320494 -1.851961 2.276561
endloop
endfacet
facet normal 0.340134 -0.562951 -0.753256
outer loop
vertex 0.269675 -1.726648 2.025049
vertex 0.179119 -1.991715 2.182258
vertex 0.000000 -1.991491 2.101209
endloop
endfacet
facet normal -0.969916 -0.208266 0.126045
outer loop
vertex 0.136846 -1.034779 0.068890
vertex 0.142922 -0.883697 0.365281
vertex 0.109071 -0.917991 0.048132
endloop
endfacet
facet normal 0.563182 0.643380 -0.518544
outer loop
vertex 0.249677 -0.937159 -0.000000
vertex 0.201659 -0.859742 0.043903
vertex 0.253187 -0.724932 0.267131
endloop
endfacet
facet normal -0.825085 0.000252 -0.565008
outer loop
vertex 0.109071 -0.917991 0.048132
vertex 0.142039 -0.892406 -0.000000
vertex 0.141957 -1.160737 -0.000000
endloop
endfacet
facet normal 0.244769 0.588708 -0.770396
outer loop
vertex 0.249677 -0.937159 -0.000000
vertex 0.142039 -0.892406 -0.000000
vertex 0.201659 -0.859742 0.043903
endloop
endfacet
facet normal 0.087084 -0.419395 0.903618
outer loop
vertex 0.136846 -1.034779 0.068890
vertex 0.221129 -1.165707 -0.000000
vertex 0.279323 -1.004253 0.069327
endloop
endfacet
facet normal 0.542672 0.415804 0.729804
outer loop
vertex 0.000000 0.855865 2.344313
vertex 0.031219 0.893242 2.299803
vertex 0.000000 0.987160 2.269508
endloop
endfacet
facet normal -0.063117 -0.866366 -0.495405
outer loop
vertex 0.196444 -1.407927 1.557294
vertex 0.167427 -1.056478 0.946375
vertex 0.275394 -1.024392 0.876507
endloop
endfacet
facet normal 0.645004 -0.523669 -0.556544
outer loop
vertex 0.269675 -1.726648 2.025049
vertex 0.000000 -1.534343 1.531564
vertex 0.270852 -1.535907 1.846939
endloop
endfacet
facet normal 0.275881 -0.781660 -0.559372
outer loop
vertex 0.000000 -1.534343 1.531564
vertex 0.000000 -1.094686 0.917192
vertex 0.167427 -1.056478 0.946375
endloop
endfacet
facet normal 0.235243 -0.333560 -0.912907
outer loop
vertex 0.000000 -1.094686 0.917192
vertex 0.090065 -0.710572 0.800052
vertex 0.167427 -1.056478 0.946375
endloop
endfacet
facet normal 0.172028 -0.722293 -0.669850
outer loop
vertex 0.351990 0.939987 0.709384
vertex 0.327333 0.477592 1.201648
vertex 0.126643 0.557162 1.064308
endloop
endfacet
facet normal 0.020998 -0.817501 -0.575545
outer loop
vertex 0.351990 0.939987 0.709384
vertex 0.178051 1.085607 0.496200
vertex 0.341785 1.167379 0.386025
endloop
endfacet
facet normal 0.963070 -0.202631 -0.177304
outer loop
vertex 0.341785 1.167379 0.386025
vertex 0.294504 1.133257 0.168202
vertex 0.295985 1.227033 0.069075
endloop
endfacet
facet normal -0.058425 -0.984248 0.166864
outer loop
vertex 0.294504 1.133257 0.168202
vertex 0.341785 1.167379 0.386025
vertex 0.190596 1.165600 0.322595
endloop
endfacet
facet normal 0.984421 -0.175300 -0.013599
outer loop
vertex 0.294504 1.133257 0.168202
vertex 0.259297 0.948597 0.000000
vertex 0.271589 1.017624 0.000000
endloop
endfacet
facet normal -0.027271 0.866647 -0.498175
outer loop
vertex 0.190391 1.333148 0.223167
vertex 0.265718 1.319261 0.194885
vertex 0.227988 1.206048 0.000000
endloop
endfacet
facet normal 0.000000 0.000000 -1.000000
outer loop
vertex 0.201187 0.971033 0.000000
vertex 0.227988 1.206048 0.000000
vertex 0.271589 1.017624 0.000000
endloop
endfacet
facet normal 0.883916 -0.322067 -0.339065
outer loop
vertex 0.269675 -1.726648 2.025049
vertex 0.270852 -1.535907 1.846939
vertex 0.320494 -1.851961 2.276561
endloop
endfacet
facet normal 0.297002 -0.691694 -0.658292
outer loop
vertex 0.179119 -1.991715 2.182258
vertex 0.038413 -2.188101 2.325125
vertex 0.000000 -1.991491 2.101209
endloop
endfacet
facet normal 0.216925 0.926392 0.307801
outer loop
vertex 0.260246 1.124088 1.533108
vertex 0.000000 1.183982 1.536255
vertex 0.108149 1.087702 1.749811
endloop
endfacet
facet normal 0.792536 0.174828 -0.584228
outer loop
vertex 0.247753 -0.680420 0.840367
vertex 0.209109 -0.273690 0.909657
vertex 0.258624 0.196158 1.117427
endloop
endfacet
facet normal 0.067359 0.996164 0.055853
outer loop
vertex 0.165525 1.183889 1.338289
vertex 0.000000 1.196901 1.305838
vertex 0.000000 1.183982 1.536255
endloop
endfacet
facet normal 0.986792 0.092071 0.133286
outer loop
vertex 0.332712 1.290853 0.609739
vertex 0.261263 1.097737 1.272117
vertex 0.351990 0.939987 0.709384
endloop
endfacet
facet normal 0.965829 0.241488 -0.094113
outer loop
vertex 0.341785 1.167379 0.386025
vertex 0.295985 1.227033 0.069075
vertex 0.332712 1.290853 0.609739
endloop
endfacet
facet normal -0.985722 -0.119943 0.118181
outer loop
vertex 0.112538 -0.730999 0.266829
vertex 0.109071 -0.917991 0.048132
vertex 0.142922 -0.883697 0.365281
endloop
endfacet
facet normal -0.030167 -0.480572 0.876436
outer loop
vertex 0.136846 -1.034779 0.068890
vertex 0.141957 -1.160737 -0.000000
vertex 0.221129 -1.165707 -0.000000
endloop
endfacet
facet normal 0.943723 0.315950 -0.097787
outer loop
vertex 0.279323 -1.004253 0.069327
vertex 0.249677 -0.937159 -0.000000
vertex 0.266643 -0.918074 0.225398
endloop
endfacet
facet normal -0.035962 0.859110 -0.510525
outer loop
vertex 0.201659 -0.859742 0.043903
vertex 0.112538 -0.730999 0.266829
vertex 0.253187 -0.724932 0.267131
endloop
endfacet
facet normal -0.454422 0.680588 -0.574717
outer loop
vertex 0.112538 -0.730999 0.266829
vertex 0.201659 -0.859742 0.043903
vertex 0.109071 -0.917991 0.048132
endloop
endfacet
facet normal -0.000000 0.000000 -1.000000
outer loop
vertex 0.141957 -1.160737 -0.000000
vertex 0.142039 -0.892406 -0.000000
vertex 0.249677 -0.937159 -0.000000
endloop
endfacet
facet normal -0.527573 0.844962 0.087786
outer loop
vertex 0.201659 -0.859742 0.043903
vertex 0.142039 -0.892406 -0.000000
vertex 0.109071 -0.917991 0.048132
endloop
endfacet
facet normal -0.949168 -0.179815 0.258353
outer loop
vertex 0.109071 -0.917991 0.048132
vertex 0.141957 -1.160737 -0.000000
vertex 0.136846 -1.034779 0.068890
endloop
endfacet
facet normal -0.090334 0.995734 -0.018780
outer loop
vertex 0.072883 1.077075 2.015119
vertex 0.000000 1.066409 1.800178
vertex 0.000000 1.071605 2.075669
endloop
endfacet
facet normal 0.921368 0.356345 0.155240
outer loop
vertex 0.000000 1.071605 2.075669
vertex 0.000000 0.987160 2.269508
vertex 0.031219 0.893242 2.299803
endloop
endfacet
facet normal 0.391736 0.745747 0.538892
outer loop
vertex 0.072883 1.077075 2.015119
vertex 0.000000 1.071605 2.075669
vertex 0.031219 0.893242 2.299803
endloop
endfacet
facet normal 0.757331 0.587105 -0.285933
outer loop
vertex 0.059452 1.009734 1.841274
vertex 0.000000 1.066409 1.800178
vertex 0.072883 1.077075 2.015119
endloop
endfacet
facet normal -0.247337 0.221870 -0.943185
outer loop
vertex -0.258624 0.196158 1.117427
vertex -0.327333 0.477592 1.201648
vertex -0.079650 0.468378 1.134529
endloop
endfacet
facet normal 0.633236 0.062592 -0.771424
outer loop
vertex -0.060662 1.173612 1.207337
vertex 0.000000 1.097438 1.250952
vertex -0.079650 0.468378 1.134529
endloop
endfacet
facet normal -0.314963 0.211133 -0.925322
outer loop
vertex -0.079650 0.468378 1.134529
vertex 0.000000 1.097438 1.250952
vertex 0.000000 0.404034 1.092736
endloop
endfacet
facet normal 0.777467 0.303861 -0.550649
outer loop
vertex 0.000000 1.196901 1.305838
vertex 0.000000 1.097438 1.250952
vertex -0.060662 1.173612 1.207337
endloop
endfacet
facet normal -0.222515 0.957100 0.185601
outer loop
vertex -0.165525 1.183889 1.338289
vertex -0.260246 1.124088 1.533108
vertex 0.000000 1.183982 1.536255
endloop
endfacet
facet normal -0.992626 0.087323 -0.084080
outer loop
vertex -0.266643 -0.918074 0.225398
vertex -0.280314 -0.877881 0.428538
vertex -0.253187 -0.724932 0.267131
endloop
endfacet
facet normal -0.525491 -0.726447 -0.442870
outer loop
vertex 0.000000 -1.534343 1.531564
vertex -0.196444 -1.407927 1.557294
vertex -0.167427 -1.056478 0.946375
endloop
endfacet
facet normal -0.232210 0.081531 -0.969243
outer loop
vertex -0.247753 -0.680420 0.840367
vertex 0.000000 -0.492645 0.796806
vertex -0.090065 -0.710572 0.800052
endloop
endfacet
facet normal -0.216562 -0.673562 -0.706693
outer loop
vertex -0.126643 0.557162 1.064308
vertex -0.079650 0.468378 1.134529
vertex -0.327333 0.477592 1.201648
endloop
endfacet
facet normal -0.888134 0.445496 -0.112917
outer loop
vertex -0.265718 1.319261 0.194885
vertex -0.295985 1.227033 0.069075
vertex -0.332712 1.290853 0.609739
endloop
endfacet
facet normal -0.016441 -0.976344 0.215595
outer loop
vertex -0.190596 1.165600 0.322595
vertex -0.294504 1.133257 0.168202
vertex -0.176518 1.129806 0.161571
endloop
endfacet
facet normal -0.168555 0.985079 -0.034760
outer loop
vertex -0.190391 1.333148 0.223167
vertex -0.265718 1.319261 0.194885
vertex -0.181895 1.349220 0.637433
endloop
endfacet
facet normal -0.998314 0.057359 0.008830
outer loop
vertex -0.332712 1.290853 0.609739
vertex -0.341785 1.167379 0.386025
vertex -0.351990 0.939987 0.709384
endloop
endfacet
facet normal -0.679482 0.157231 -0.716646
outer loop
vertex -0.227988 1.206048 0.000000
vertex -0.271589 1.017624 0.000000
vertex -0.295985 1.227033 0.069075
endloop
endfacet
facet normal 0.242338 -0.627665 0.739803
outer loop
vertex -0.201187 0.971033 0.000000
vertex -0.294504 1.133257 0.168202
vertex -0.259297 0.948597 0.000000
endloop
endfacet
facet normal 0.018405 -0.714538 0.699354
outer loop
vertex -0.201187 0.971033 0.000000
vertex -0.176518 1.129806 0.161571
vertex -0.294504 1.133257 0.168202
endloop
endfacet
facet normal -0.668049 -0.498582 -0.552383
outer loop
vertex 0.000000 -2.249737 2.334301
vertex -0.038413 -2.188101 2.325125
vertex 0.000000 -1.991491 2.101209
endloop
endfacet
facet normal -0.765100 -0.501167 -0.404293
outer loop
vertex -0.320494 -1.851961 2.276561
vertex -0.269675 -1.726648 2.025049
vertex -0.179119 -1.991715 2.182258
endloop
endfacet
facet normal -0.391203 -0.893263 -0.221451
outer loop
vertex -0.263707 -1.587063 2.665215
vertex -0.432909 -1.536789 2.761328
vertex -0.374852 -1.480388 2.431265
endloop
endfacet
facet normal 0.981818 -0.189614 0.008917
outer loop
vertex -0.112538 -0.730999 0.266829
vertex -0.110432 -0.698794 0.719781
vertex -0.142922 -0.883697 0.365281
endloop
endfacet
facet normal -0.880825 -0.155752 -0.447088
outer loop
vertex -0.221129 -1.165707 -0.000000
vertex -0.284867 -1.004253 0.069327
vertex -0.261542 -0.937159 -0.000000
endloop
endfacet
facet normal -0.252103 -0.864235 0.435365
outer loop
vertex -0.266643 -0.918074 0.225398
vertex -0.136846 -1.034779 0.068890
vertex -0.142922 -0.883697 0.365281
endloop
endfacet
facet normal -0.174505 -0.853214 0.491502
outer loop
vertex -0.136846 -1.034779 0.068890
vertex -0.266643 -0.918074 0.225398
vertex -0.284867 -1.004253 0.069327
endloop
endfacet
facet normal 0.000000 0.000000 -1.000000
outer loop
vertex -0.141957 -1.160737 -0.000000
vertex -0.221129 -1.165707 -0.000000
vertex -0.261542 -0.937159 -0.000000
endloop
endfacet
facet normal -0.286576 0.246574 -0.925784
outer loop
vertex 0.000000 0.404034 1.092736
vertex -0.258624 0.196158 1.117427
vertex -0.079650 0.468378 1.134529
endloop
endfacet
facet normal -0.360246 0.345258 -0.866614
outer loop
vertex 0.000000 0.404034 1.092736
vertex -0.209109 -0.273690 0.909657
vertex -0.258624 0.196158 1.117427
endloop
endfacet
facet normal -0.306610 0.188088 -0.933067
outer loop
vertex -0.247753 -0.680420 0.840367
vertex -0.209109 -0.273690 0.909657
vertex 0.000000 -0.492645 0.796806
endloop
endfacet
facet normal -0.523598 -0.721391 -0.453256
outer loop
vertex 0.000000 -1.534343 1.531564
vertex -0.270852 -1.535907 1.846939
vertex -0.196444 -1.407927 1.557294
endloop
endfacet
facet normal -0.854542 -0.488596 -0.176160
outer loop
vertex -0.196444 -1.407927 1.557294
vertex -0.323581 -1.029274 1.123800
vertex -0.275394 -1.024392 0.876507
endloop
endfacet
facet normal -0.114122 -0.902982 -0.414245
outer loop
vertex 0.000000 -1.720714 1.937820
vertex -0.269675 -1.726648 2.025049
vertex 0.000000 -1.534343 1.531564
endloop
endfacet
facet normal 0.402056 -0.179535 -0.897841
outer loop
vertex 0.000000 -1.094686 0.917192
vertex -0.090065 -0.710572 0.800052
vertex 0.000000 -0.492645 0.796806
endloop
endfacet
facet normal -0.109305 0.980308 -0.164462
outer loop
vertex -0.165525 1.183889 1.338289
vertex 0.000000 1.196901 1.305838
vertex -0.060662 1.173612 1.207337
endloop
endfacet
facet normal 0.848693 0.031654 -0.527938
outer loop
vertex -0.079650 0.468378 1.134529
vertex -0.126643 0.557162 1.064308
vertex -0.060662 1.173612 1.207337
endloop
endfacet
facet normal -0.181274 0.308210 -0.933888
outer loop
vertex 0.000000 -0.492645 0.796806
vertex -0.209109 -0.273690 0.909657
vertex 0.000000 0.404034 1.092736
endloop
endfacet
facet normal -0.091156 -0.705375 -0.702949
outer loop
vertex -0.166585 0.867075 0.758505
vertex -0.126643 0.557162 1.064308
vertex -0.351990 0.939987 0.709384
endloop
endfacet
facet normal -0.133410 -0.764293 -0.630918
outer loop
vertex -0.178051 1.085607 0.496200
vertex -0.166585 0.867075 0.758505
vertex -0.351990 0.939987 0.709384
endloop
endfacet
facet normal -0.178829 -0.898430 -0.401052
outer loop
vertex -0.341785 1.167379 0.386025
vertex -0.190596 1.165600 0.322595
vertex -0.178051 1.085607 0.496200
endloop
endfacet
facet normal 0.960674 0.138454 -0.240698
outer loop
vertex -0.190391 1.333148 0.223167
vertex -0.176518 1.129806 0.161571
vertex -0.227988 1.206048 0.000000
endloop
endfacet
facet normal -0.282050 0.804856 -0.522163
outer loop
vertex -0.295985 1.227033 0.069075
vertex -0.265718 1.319261 0.194885
vertex -0.227988 1.206048 0.000000
endloop
endfacet
facet normal -0.993152 -0.091915 -0.072114
outer loop
vertex -0.294504 1.133257 0.168202
vertex -0.295985 1.227033 0.069075
vertex -0.271589 1.017624 0.000000
endloop
endfacet
facet normal 0.960874 0.109578 -0.254388
outer loop
vertex -0.201187 0.971033 0.000000
vertex -0.227988 1.206048 0.000000
vertex -0.176518 1.129806 0.161571
endloop
endfacet
facet normal 0.000000 0.000000 -1.000000
outer loop
vertex -0.201187 0.971033 0.000000
vertex -0.259297 0.948597 0.000000
vertex -0.271589 1.017624 0.000000
endloop
endfacet
facet normal -0.256683 -0.499330 -0.827516
outer loop
vertex 0.000000 -1.720714 1.937820
vertex 0.000000 -1.991491 2.101209
vertex -0.269675 -1.726648 2.025049
endloop
endfacet
facet normal -0.734414 -0.561149 0.381769
outer loop
vertex -0.182218 -1.906314 2.462673
vertex -0.320494 -1.851961 2.276561
vertex -0.038413 -2.188101 2.325125
endloop
endfacet
facet normal -0.745259 -0.648065 -0.156848
outer loop
vertex -0.038413 -2.188101 2.325125
vertex -0.320494 -1.851961 2.276561
vertex -0.179119 -1.991715 2.182258
endloop
endfacet
facet normal -0.340134 -0.562951 -0.753256
outer loop
vertex -0.269675 -1.726648 2.025049
vertex 0.000000 -1.991491 2.101209
vertex -0.179119 -1.991715 2.182258
endloop
endfacet
facet normal 0.969916 -0.208266 0.126045
outer loop
vertex -0.136846 -1.034779 0.068890
vertex -0.109071 -0.917991 0.048132
vertex -0.142922 -0.883697 0.365281
endloop
endfacet
facet normal -0.498832 0.686137 -0.529512
outer loop
vertex -0.261542 -0.937159 -0.000000
vertex -0.253187 -0.724932 0.267131
vertex -0.201659 -0.859742 0.043903
endloop
endfacet
facet normal 0.825085 0.000252 -0.565008
outer loop
vertex -0.109071 -0.917991 0.048132
vertex -0.141957 -1.160737 -0.000000
vertex -0.142039 -0.892406 -0.000000
endloop
endfacet
facet normal -0.227523 0.607551 -0.760996
outer loop
vertex -0.261542 -0.937159 -0.000000
vertex -0.201659 -0.859742 0.043903
vertex -0.142039 -0.892406 -0.000000
endloop
endfacet
facet normal -0.084160 -0.421024 0.903137
outer loop
vertex -0.136846 -1.034779 0.068890
vertex -0.284867 -1.004253 0.069327
vertex -0.221129 -1.165707 -0.000000
endloop
endfacet
facet normal -0.542672 0.415804 0.729804
outer loop
vertex 0.000000 0.855865 2.344313
vertex 0.000000 0.987160 2.269508
vertex -0.031219 0.893242 2.299803
endloop
endfacet
facet normal 0.063117 -0.866366 -0.495405
outer loop
vertex -0.196444 -1.407927 1.557294
vertex -0.275394 -1.024392 0.876507
vertex -0.167427 -1.056478 0.946375
endloop
endfacet
facet normal -0.645004 -0.523669 -0.556544
outer loop
vertex -0.269675 -1.726648 2.025049
vertex -0.270852 -1.535907 1.846939
vertex 0.000000 -1.534343 1.531564
endloop
endfacet
facet normal -0.275881 -0.781660 -0.559372
outer loop
vertex 0.000000 -1.534343 1.531564
vertex -0.167427 -1.056478 0.946375
vertex 0.000000 -1.094686 0.917192
endloop
endfacet
facet normal -0.235243 -0.333560 -0.912907
outer loop
vertex 0.000000 -1.094686 0.917192
vertex -0.167427 -1.056478 0.946375
vertex -0.090065 -0.710572 0.800052
endloop
endfacet
facet normal -0.172028 -0.722293 -0.669850
outer loop
vertex -0.351990 0.939987 0.709384
vertex -0.126643 0.557162 1.064308
vertex -0.327333 0.477592 1.201648
endloop
endfacet
facet normal -0.020998 -0.817501 -0.575545
outer loop
vertex -0.351990 0.939987 0.709384
vertex -0.341785 1.167379 0.386025
vertex -0.178051 1.085607 0.496200
endloop
endfacet
facet normal -0.963070 -0.202631 -0.177304
outer loop
vertex -0.341785 1.167379 0.386025
vertex -0.295985 1.227033 0.069075
vertex -0.294504 1.133257 0.168202
endloop
endfacet
facet normal 0.058425 -0.984248 0.166864
outer loop
vertex -0.294504 1.133257 0.168202
vertex -0.190596 1.165600 0.322595
vertex -0.341785 1.167379 0.386025
endloop
endfacet
facet normal -0.984421 -0.175300 -0.013599
outer loop
vertex -0.294504 1.133257 0.168202
vertex -0.271589 1.017624 0.000000
vertex -0.259297 0.948597 0.000000
endloop
endfacet
facet normal 0.027271 0.866647 -0.498175
outer loop
vertex -0.190391 1.333148 0.223167
vertex -0.227988 1.206048 0.000000
vertex -0.265718 1.319261 0.194885
endloop
endfacet
facet normal 0.000000 0.000000 -1.000000
outer loop
vertex -0.201187 0.971033 0.000000
vertex -0.271589 1.017624 0.000000
vertex -0.227988 1.206048 0.000000
endloop
endfacet
facet normal -0.883916 -0.322067 -0.339065
outer loop
vertex -0.269675 -1.726648 2.025049
vertex -0.320494 -1.851961 2.276561
vertex -0.270852 -1.535907 1.846939
endloop
endfacet
facet normal -0.297002 -0.691694 -0.658292
outer loop
vertex -0.179119 -1.991715 2.182258
vertex 0.000000 -1.991491 2.101209
vertex -0.038413 -2.188101 2.325125
endloop
endfacet
facet normal -0.216925 0.926392 0.307801
outer loop
vertex -0.260246 1.124088 1.533108
vertex -0.108149 1.087702 1.749811
vertex 0.000000 1.183982 1.536255
endloop
endfacet
facet normal -0.792536 0.174828 -0.584228
outer loop
vertex -0.247753 -0.680420 0.840367
vertex -0.258624 0.196158 1.117427
vertex -0.209109 -0.273690 0.909657
endloop
endfacet
facet normal -0.067359 0.996164 0.055853
outer loop
vertex -0.165525 1.183889 1.338289
vertex 0.000000 1.183982 1.536255
vertex 0.000000 1.196901 1.305838
endloop
endfacet
facet normal -0.986792 0.092071 0.133286
outer loop
vertex -0.332712 1.290853 0.609739
vertex -0.351990 0.939987 0.709384
vertex -0.261263 1.097737 1.272117
endloop
endfacet
facet normal -0.965829 0.241488 -0.094113
outer loop
vertex -0.341785 1.167379 0.386025
vertex -0.332712 1.290853 0.609739
vertex -0.295985 1.227033 0.069075
endloop
endfacet
facet normal 0.985722 -0.119943 0.118181
outer loop
vertex -0.112538 -0.730999 0.266829
vertex -0.142922 -0.883697 0.365281
vertex -0.109071 -0.917991 0.048132
endloop
endfacet
facet normal 0.030167 -0.480572 0.876436
outer loop
vertex -0.136846 -1.034779 0.068890
vertex -0.221129 -1.165707 -0.000000
vertex -0.141957 -1.160737 -0.000000
endloop
endfacet
facet normal -0.957299 0.285442 -0.045834
outer loop
vertex -0.284867 -1.004253 0.069327
vertex -0.266643 -0.918074 0.225398
vertex -0.261542 -0.937159 -0.000000
endloop
endfacet
facet normal 0.035962 0.859110 -0.510525
outer loop
vertex -0.201659 -0.859742 0.043903
vertex -0.253187 -0.724932 0.267131
vertex -0.112538 -0.730999 0.266829
endloop
endfacet
facet normal 0.454422 0.680588 -0.574717
outer loop
vertex -0.112538 -0.730999 0.266829
vertex -0.109071 -0.917991 0.048132
vertex -0.201659 -0.859742 0.043903
endloop
endfacet
facet normal 0.000000 0.000000 -1.000000
outer loop
vertex -0.141957 -1.160737 -0.000000
vertex -0.261542 -0.937159 -0.000000
vertex -0.142039 -0.892406 -0.000000
endloop
endfacet
facet normal 0.527573 0.844962 0.087786
outer loop
vertex -0.201659 -0.859742 0.043903
vertex -0.109071 -0.917991 0.048132
vertex -0.142039 -0.892406 -0.000000
endloop
endfacet
facet normal 0.949168 -0.179815 0.258353
outer loop
vertex -0.109071 -0.917991 0.048132
vertex -0.136846 -1.034779 0.068890
vertex -0.141957 -1.160737 -0.000000
endloop
endfacet
facet normal 0.090334 0.995734 -0.018780
outer loop
vertex -0.072883 1.077075 2.015119
vertex 0.000000 1.071605 2.075669
vertex 0.000000 1.066409 1.800178
endloop
endfacet
facet normal -0.921368 0.356345 0.155240
outer loop
vertex 0.000000 1.071605 2.075669
vertex -0.031219 0.893242 2.299803
vertex 0.000000 0.987160 2.269508
endloop
endfacet
facet normal -0.391736 0.745747 0.538892
outer loop
vertex -0.072883 1.077075 2.015119
vertex -0.031219 0.893242 2.299803
vertex 0.000000 1.071605 2.075669
endloop
endfacet
facet normal -0.757331 0.587105 -0.285933
outer loop
vertex -0.059452 1.009734 1.841274
vertex -0.072883 1.077075 2.015119
vertex 0.000000 1.066409 1.800178
endloop
endfacet
facet normal 0.992829 0.086907 -0.082090
outer loop
vertex 0.249677 -0.937159 -0.000000
vertex 0.253187 -0.724932 0.267131
vertex 0.266643 -0.918074 0.225398
endloop
endfacet
facet normal -0.996710 0.075698 -0.028966
outer loop
vertex -0.261542 -0.937159 -0.000000
vertex -0.266643 -0.918074 0.225398
vertex -0.253187 -0.724932 0.267131
endloop
endfacet
facet normal 0.560008 -0.819773 -0.119846
outer loop
vertex 0.031141 -2.235880 2.385037
vertex 0.000000 -2.258036 2.391077
vertex 0.000000 -2.249737 2.334301
endloop
endfacet
facet normal 0.957808 -0.269842 -0.098941
outer loop
vertex 0.031141 -2.235880 2.385037
vertex 0.024706 -2.244122 2.345220
vertex 0.038413 -2.188101 2.325125
endloop
endfacet
facet normal 0.444969 -0.396848 -0.802816
outer loop
vertex 0.024706 -2.244122 2.345220
vertex 0.000000 -2.249737 2.334301
vertex 0.038413 -2.188101 2.325125
endloop
endfacet
facet normal 0.142386 -0.973581 0.178511
outer loop
vertex 0.000000 -2.249737 2.334301
vertex 0.024706 -2.244122 2.345220
vertex 0.031141 -2.235880 2.385037
endloop
endfacet
facet normal -0.560008 -0.819773 -0.119846
outer loop
vertex -0.031141 -2.235880 2.385037
vertex 0.000000 -2.249737 2.334301
vertex 0.000000 -2.258036 2.391077
endloop
endfacet
facet normal -0.957808 -0.269842 -0.098941
outer loop
vertex -0.031141 -2.235880 2.385037
vertex -0.038413 -2.188101 2.325125
vertex -0.024706 -2.244122 2.345220
endloop
endfacet
facet normal -0.444969 -0.396848 -0.802816
outer loop
vertex -0.024706 -2.244122 2.345220
vertex -0.038413 -2.188101 2.325125
vertex 0.000000 -2.249737 2.334301
endloop
endfacet
facet normal -0.142386 -0.973581 0.178511
outer loop
vertex 0.000000 -2.249737 2.334301
vertex -0.031141 -2.235880 2.385037
vertex -0.024706 -2.244122 2.345220
endloop
endfacet
endsolid Exported from Blender-2.82 (sub 7)
