# Blender v2.78 (sub 0) OBJ File: 'tree-spreading.blend'
# www.blender.org
mtllib tree-spreading.mtl
o leaves_Icosphere.002
v 3.524082 4.344069 2.824097
v -2.076047 4.757895 4.772608
v -4.708872 4.559082 0.285584
v -2.036963 4.861600 -3.828379
v -0.012327 7.696680 4.594481
v 1.179283 7.478718 -5.109258
v 5.053600 7.825820 -0.045252
v -0.858759 9.570326 -0.033247
v -0.901974 4.514370 0.866524
v 0.162651 4.280246 1.416698
v 1.363619 4.675287 3.286239
v -0.057289 3.946288 -0.610213
v 1.213403 4.698646 -2.751325
v -3.076897 4.634423 0.286792
v -4.906467 4.482756 2.277664
v -2.230797 4.501980 -0.761681
v -5.547067 4.532180 -1.297029
v -4.564609 4.502694 -3.396714
v 6.140679 6.785109 0.912591
v 6.233930 5.624941 1.088369
v 5.165716 5.089962 1.377136
v 3.863224 5.007676 -1.633113
v 6.112030 6.649929 -1.261239
v 1.432022 6.961434 5.981205
v 1.188184 6.118759 6.255482
v 4.080451 5.523019 4.722375
v 2.821763 5.520923 5.603830
v -6.480104 5.607391 2.718204
v -6.369065 4.817067 1.981139
v -2.889806 5.792501 5.176508
v -3.670216 6.325022 4.826388
v -3.875270 7.223147 4.090273
v -4.814829 5.565266 -4.617160
v -6.609130 5.078727 -0.557905
v -7.196713 5.892761 -1.542084
v -6.770829 6.643882 -1.982801
v 1.915374 5.734861 -5.005704
v -3.527611 5.242663 -4.813139
v -1.103496 5.438562 -5.516579
v 0.155396 5.775491 -5.499940
v 5.071098 7.541515 2.405573
v 3.624359 7.981301 3.725289
v -1.971302 7.454688 4.674795
v -6.442255 7.205159 -0.939567
v -5.605188 6.387950 -3.661366
v -0.167418 7.322609 -5.155519
v 3.616691 7.316155 -2.855498
v 5.146627 7.375920 -1.692684
v 1.616307 9.069668 2.395331
v 1.757104 8.090915 4.404226
v 2.631963 8.971233 0.266300
v 0.315589 9.459072 -0.515293
v -2.254622 9.266731 0.782686
v -2.401325 8.280668 3.763057
v -3.604980 9.043697 -0.727393
v -5.339449 8.334833 -0.831587
v 0.937139 8.126371 -4.548919
v -1.505097 8.952520 -2.779354
v -0.691077 8.389786 -3.927975
v -3.977243 7.962835 3.244635
v 3.296896 8.744422 1.855486
v 4.991482 6.591214 -2.765563
v 2.905424 5.750379 -4.320687
v -3.471336 5.728299 -5.231905
v -7.391065 5.735272 0.895798
v 4.861967 6.518317 3.840987
v -0.529623 4.931126 -4.555105
v -6.120741 5.808320 -3.529491
v -5.438972 4.855199 -3.698232
v -5.127649 5.573566 3.879840
v -4.133603 4.778037 4.186527
v -0.307782 4.644096 5.590913
v 2.237550 4.881622 5.280183
v 5.652553 5.779217 -1.803831
v 5.638478 4.946060 -0.109888
v 4.944910 5.124194 -1.358461
v -0.826503 4.370638 -2.352620
v -3.763963 4.692071 -1.415906
v -1.964606 4.788553 1.495945
v 1.459739 4.448078 -0.019321
v 3.032870 4.308675 1.883459
v 0.080974 4.541817 2.438312
vn 0.3140 -0.9407 -0.1286
vn -0.0728 -0.9951 0.0670
vn -0.2560 -0.9422 0.2161
vn -0.3733 -0.5771 0.7263
vn -0.2112 -0.9757 -0.0583
vn 0.0543 -0.9008 -0.4308
vn 0.5960 -0.7487 0.2903
vn -0.2305 -0.9699 -0.0782
vn -0.6995 0.6976 -0.1550
vn -0.0483 0.6431 -0.7642
vn 0.2826 0.9229 -0.2614
vn 0.3935 0.8922 -0.2214
vn 0.2597 0.8847 -0.3871
vn 0.4470 0.8410 -0.3049
vn 0.5342 0.6584 -0.5302
vn 0.0361 0.9505 -0.3085
vn 0.0021 0.9755 -0.2200
vn -0.1395 0.9726 -0.1860
vn 0.1631 0.9267 -0.3385
vn -0.3309 0.8651 -0.3771
vn -0.1450 0.7152 -0.6837
vn -0.3310 0.7334 -0.5938
vn -0.3794 0.7785 -0.5000
vn -0.4993 0.7350 -0.4588
vn -0.1956 0.9802 0.0301
vn -0.3807 0.9011 0.2074
vn -0.3817 0.9002 0.2097
vn -0.2798 0.9155 0.2891
vn -0.0236 0.9495 0.3130
vn -0.0893 0.9536 0.2876
vn -0.0268 0.8979 0.4394
vn -0.3487 0.6842 0.6405
vn -0.2964 0.6341 0.7142
vn -0.0615 0.7251 0.6859
vn -0.0783 0.6959 0.7138
vn 0.1251 0.9892 0.0764
vn 0.1910 0.9805 0.0458
vn 0.2062 0.9771 0.0532
vn 0.4221 0.9053 -0.0474
vn 0.2037 0.8857 0.4172
vn 0.2783 0.9054 0.3208
vn 0.4870 0.8352 0.2556
vn 0.5388 0.8373 0.0933
vn 0.6395 0.7501 -0.1687
vn 0.8018 -0.0522 -0.5952
vn 0.3400 -0.8683 -0.3611
vn 0.6512 0.5646 -0.5071
vn 0.4104 0.7068 -0.5763
vn 0.6452 -0.3047 -0.7007
vn 0.3420 0.5545 -0.7586
vn 0.6506 0.3399 -0.6791
vn 0.2491 -0.9071 -0.3394
vn 0.5570 0.1870 -0.8092
vn 0.0081 0.2189 -0.9757
vn -0.0429 0.2086 -0.9771
vn -0.1683 -0.6325 -0.7561
vn -0.0884 0.2297 -0.9692
vn -0.2992 0.6533 -0.6955
vn -0.3049 0.6565 -0.6900
vn -0.2667 -0.6115 -0.7450
vn -0.4105 0.4952 -0.7657
vn -0.8682 0.4961 0.0065
vn -0.7440 -0.6603 -0.1020
vn -0.8593 0.5103 -0.0355
vn -0.7128 0.6791 0.1754
vn -0.6529 0.7029 0.2823
vn -0.6593 -0.7517 -0.0151
vn -0.8069 -0.4595 0.3711
vn -0.6748 0.6317 0.3816
vn -0.3045 0.5612 0.7696
vn -0.2660 0.2262 0.9370
vn -0.2319 0.4635 0.8552
vn -0.2856 0.3703 0.8839
vn -0.0822 0.8425 0.5324
vn -0.1221 0.8186 0.5612
vn 0.5321 0.3066 0.7892
vn 0.4494 0.6798 0.5795
vn 0.3378 0.3547 0.8718
vn 0.5527 0.2655 0.7899
vn 0.6382 0.5799 0.5064
vn 0.4882 -0.8312 0.2660
vn 0.8411 -0.2246 0.4921
vn 0.9036 0.1343 0.4068
vn 0.8308 0.3888 0.3982
vn 0.6500 0.7554 0.0830
vn 0.2711 0.0574 -0.9608
vn 0.1493 -0.7886 -0.5965
vn 0.2218 -0.8015 -0.5554
vn -0.0553 -0.8963 -0.4400
vn 0.2353 -0.9088 -0.3445
vn -0.0783 -0.9639 -0.2545
vn -0.5664 0.3322 -0.7542
vn -0.2723 -0.6630 -0.6973
vn -0.6831 0.4829 -0.5480
vn -0.8564 0.2083 -0.4725
vn -0.6391 -0.3345 -0.6926
vn -0.7774 -0.4852 -0.4003
vn -0.6663 -0.7192 -0.1971
vn -0.1475 -0.8282 -0.5406
vn -0.3282 -0.9341 -0.1404
vn -0.5268 -0.8390 -0.1366
vn -0.3382 -0.9207 0.1948
vn -0.6297 0.5455 0.5531
vn -0.6011 0.3657 0.7105
vn -0.6351 0.3977 0.6622
vn -0.5198 -0.6206 0.5871
vn -0.6036 -0.5220 0.6026
vn -0.4468 -0.2244 0.8661
vn -0.5089 -0.1944 0.8386
vn -0.2638 -0.9314 0.2509
vn -0.2401 -0.5110 0.8253
vn -0.2370 -0.1890 0.9529
vn 0.4181 0.1695 0.8925
vn 0.1513 -0.5296 0.8346
vn 0.1329 -0.5416 0.8300
vn 0.4188 -0.6847 0.5965
vn 0.0999 -0.9932 0.0590
vn -0.1177 -0.9812 0.1531
vn 0.4061 -0.8249 0.3933
vn 0.7145 0.6977 -0.0528
vn 0.9797 0.0493 -0.1943
vn 0.4854 -0.8419 0.2358
vn 0.8796 -0.4754 0.0180
vn 0.8842 -0.4221 -0.2002
vn 0.4865 -0.7856 -0.3823
vn 0.2440 -0.7116 -0.6589
vn -0.0919 -0.9935 0.0669
vn 0.1610 -0.9606 -0.2265
vn 0.0996 -0.9558 -0.2767
vn 0.1103 -0.9667 -0.2311
vn -0.0789 -0.9635 -0.2558
vn -0.2371 -0.9628 -0.1298
vn -0.2350 -0.9636 -0.1278
vn 0.1464 -0.9886 0.0353
vn -0.0713 -0.9901 -0.1206
vn 0.0930 -0.9940 0.0575
vn -0.1312 -0.9912 0.0194
vn 0.0461 -0.9976 -0.0524
vn 0.0873 -0.9957 -0.0293
vn 0.0459 -0.9954 0.0847
vn 0.0958 -0.9950 -0.0286
vn -0.1142 -0.9669 0.2283
vn 0.1019 -0.9948 -0.0058
vn -0.0598 -0.9825 0.1762
vn 0.2490 -0.9071 -0.3394
vn 0.3183 -0.9414 -0.1120
vn 0.1585 -0.9818 -0.1043
vn 0.1156 -0.9791 -0.1673
vn 0.3526 -0.9284 -0.1169
vn 0.0251 -0.9953 -0.0937
vn 0.2659 -0.9554 0.1286
vn -0.3021 -0.9348 0.1868
vn -0.1138 -0.9934 -0.0132
vn -0.1764 -0.9760 0.1274
vn -0.0749 -0.9969 0.0231
vn 0.0761 -0.9962 0.0417
vn -0.3131 -0.9257 0.2120
vn -0.0600 -0.9681 0.2431
vn -0.0266 -0.9745 0.2230
vn -0.1289 -0.9862 0.1044
usemtl tree_green
s off
f 1//1 81//1 21//1
f 9//2 14//2 16//2
f 9//3 16//3 12//3
f 2//4 72//4 30//4
f 3//5 15//5 29//5
f 4//6 18//6 38//6
f 1//7 21//7 26//7
f 3//8 29//8 34//8
f 36//9 44//9 56//9
f 6//10 46//10 57//10
f 51//11 57//11 52//11
f 7//12 48//12 51//12
f 48//13 47//13 51//13
f 51//14 47//14 57//14
f 47//15 6//15 57//15
f 57//16 59//16 52//16
f 52//17 58//17 8//17
f 58//18 55//18 8//18
f 52//19 59//19 58//19
f 58//20 56//20 55//20
f 57//21 46//21 59//21
f 59//22 45//22 58//22
f 58//23 45//23 56//23
f 45//24 36//24 56//24
f 55//25 53//25 8//25
f 55//26 56//26 53//26
f 56//27 60//27 53//27
f 53//28 60//28 54//28
f 53//29 54//29 8//29
f 54//30 49//30 8//30
f 54//31 50//31 49//31
f 60//32 32//32 54//32
f 32//33 43//33 54//33
f 43//34 5//34 54//34
f 54//35 5//35 50//35
f 8//36 49//36 52//36
f 49//37 51//37 52//37
f 49//38 61//38 51//38
f 61//39 7//39 51//39
f 50//40 42//40 49//40
f 49//41 42//41 61//41
f 42//42 41//42 61//42
f 61//43 41//43 7//43
f 23//44 48//44 7//44
f 74//45 62//45 23//45
f 22//46 63//46 74//46
f 23//47 62//47 48//47
f 62//48 47//48 48//48
f 74//49 63//49 62//49
f 62//50 63//50 47//50
f 63//51 6//51 47//51
f 22//52 37//52 63//52
f 63//53 37//53 6//53
f 40//54 46//54 6//54
f 39//55 46//55 40//55
f 38//56 64//56 39//56
f 39//57 64//57 46//57
f 46//58 64//58 59//58
f 64//59 45//59 59//59
f 38//60 33//60 64//60
f 33//61 45//61 64//61
f 35//62 44//62 36//62
f 34//63 65//63 35//63
f 35//64 65//64 44//64
f 44//65 65//65 56//65
f 65//66 60//66 56//66
f 34//67 29//67 65//67
f 29//68 28//68 65//68
f 65//69 28//69 60//69
f 31//70 43//70 32//70
f 30//71 25//71 31//71
f 31//72 25//72 43//72
f 25//73 24//73 43//73
f 43//74 24//74 5//74
f 24//75 50//75 5//75
f 27//76 66//76 24//76
f 24//77 66//77 50//77
f 66//78 42//78 50//78
f 27//79 26//79 66//79
f 66//80 41//80 42//80
f 21//81 20//81 26//81
f 26//82 20//82 66//82
f 20//83 19//83 66//83
f 66//84 19//84 41//84
f 19//85 7//85 41//85
f 37//86 40//86 6//86
f 37//87 67//87 40//87
f 40//88 67//88 39//88
f 67//89 38//89 39//89
f 13//90 67//90 37//90
f 67//91 4//91 38//91
f 33//92 68//92 45//92
f 38//93 69//93 33//93
f 45//94 68//94 36//94
f 68//95 35//95 36//95
f 33//96 69//96 68//96
f 68//97 69//97 35//97
f 69//98 34//98 35//98
f 38//99 18//99 69//99
f 18//100 17//100 69//100
f 69//101 17//101 34//101
f 17//102 3//102 34//102
f 28//103 32//103 60//103
f 28//104 70//104 32//104
f 70//105 31//105 32//105
f 28//106 29//106 70//106
f 29//107 71//107 70//107
f 70//108 71//108 31//108
f 71//109 30//109 31//109
f 29//110 15//110 71//110
f 71//111 2//111 30//111
f 30//112 72//112 25//112
f 25//113 27//113 24//113
f 72//114 73//114 25//114
f 25//115 73//115 27//115
f 73//116 26//116 27//116
f 72//117 11//117 73//117
f 11//118 1//118 73//118
f 73//119 1//119 26//119
f 19//120 23//120 7//120
f 20//121 74//121 19//121
f 21//122 75//122 20//122
f 19//123 74//123 23//123
f 20//124 75//124 74//124
f 75//125 76//125 74//125
f 76//126 22//126 74//126
f 21//127 22//127 75//127
f 75//128 22//128 76//128
f 12//129 77//129 13//129
f 13//130 77//130 67//130
f 77//131 4//131 67//131
f 12//132 16//132 77//132
f 16//133 4//133 77//133
f 4//134 78//134 18//134
f 4//135 16//135 78//135
f 78//136 17//136 18//136
f 16//137 14//137 78//137
f 14//138 3//138 78//138
f 78//139 3//139 17//139
f 14//140 79//140 3//140
f 3//141 79//141 15//141
f 14//142 9//142 79//142
f 79//143 2//143 15//143
f 15//144 2//144 71//144
f 22//145 13//145 37//145
f 21//146 81//146 22//146
f 22//147 80//147 13//147
f 22//148 81//148 80//148
f 80//149 12//149 13//149
f 81//150 10//150 80//150
f 80//151 10//151 12//151
f 10//152 9//152 12//152
f 79//153 82//153 2//153
f 9//154 82//154 79//154
f 2//155 82//155 72//155
f 82//156 11//156 72//156
f 9//157 10//157 82//157
f 82//158 10//158 11//158
f 10//159 81//159 11//159
f 11//160 81//160 1//160
o trunk_Cube
v 0.027656 -0.007227 0.447302
v -0.289007 0.001421 0.361075
v -0.350634 0.617017 0.094337
v -0.214920 0.569371 -0.288460
v 0.023994 0.940921 -0.351471
v -0.672290 1.862432 -0.088893
v 0.272467 1.210112 0.022780
v -0.497669 2.452068 0.302469
v -0.755060 2.347944 0.174502
v 1.840289 4.378814 -0.125871
v -0.172307 2.727377 -0.000285
v -0.461126 2.040517 -0.301820
v -0.298581 3.054394 -0.303270
v -0.892724 3.462137 -0.229327
v -0.852973 3.045056 -0.047469
v -0.884474 3.176148 -0.152740
v 2.061075 5.471756 -0.113247
v 1.228909 4.024448 -0.424789
v 1.081676 3.599301 -0.019631
v 1.607004 4.639970 -0.191443
v 1.032022 3.879004 -0.094981
v 2.131611 5.402952 -0.382174
v -2.729946 5.197021 -0.151485
v -1.163654 3.632040 0.154603
v -2.128721 3.764605 0.147155
v 1.985221 5.467185 -0.362658
v 2.182823 5.427607 -0.171042
v -2.800885 5.161224 0.036299
v -2.878513 5.125021 -0.244133
v 0.051136 -0.012852 -0.454610
v 0.386974 -0.000868 -0.251181
v 0.385397 0.002598 0.270091
v -0.446555 -0.007199 0.029750
v -0.361220 0.001452 -0.288768
v -0.117599 3.535606 -0.110837
v 0.464058 3.593089 0.032227
v 0.491814 3.501765 -0.394715
v 0.014683 3.084027 -0.138056
v -0.117111 3.161613 0.220882
v -0.109288 0.618439 0.343590
v -0.743339 2.998138 0.456616
v -0.755878 3.591726 1.279422
v -0.333006 3.269563 0.726755
v -0.422443 5.105277 1.837027
v -0.621016 5.097471 1.884471
v -2.093704 3.591589 -0.066019
v -1.652871 4.171167 -1.084610
v -1.609693 4.554992 -1.327128
v -1.943423 3.904490 0.234160
v -1.819575 3.968162 0.171998
v -0.797979 3.678133 1.525755
v 2.031757 4.740176 -0.324666
v 1.948812 5.487041 -0.248664
v -1.635876 4.292068 -1.023042
v -0.435775 3.532321 1.526632
v -0.553117 3.597837 1.074360
v -2.131314 3.791676 -0.201782
v -1.826602 3.636355 -0.219970
v -1.709501 3.780576 -0.157939
v -1.994314 4.030369 -0.158496
v -1.860901 3.941097 -0.288055
v -0.474526 3.908245 1.667841
v -0.316213 4.026925 2.333674
v -0.386265 3.926633 1.959141
v -0.104373 4.818018 2.646236
v -0.188592 4.821406 2.517954
v -0.327756 4.831180 2.654661
v -0.541078 4.022537 2.212715
v -0.340625 4.276246 2.272243
v -0.422161 4.166740 2.463773
v -0.586663 3.738691 2.021230
v -0.360892 2.792797 0.246476
v -0.472397 3.433257 0.201940
v 1.253632 3.637132 -0.328780
v -1.739948 4.242004 -1.153438
v -1.995702 3.642699 -0.240623
v -0.552137 5.147048 1.740353
v -0.241161 2.743935 -0.209795
v -0.947061 3.297351 0.306201
v -2.943891 5.064518 -0.058439
v -1.699473 4.305897 -1.012479
v -1.601693 4.562097 -1.189715
v -0.550359 3.799072 1.373383
v -0.656067 3.847230 1.750450
vn 0.4259 0.2379 0.8729
vn 0.1124 0.0943 -0.9892
vn 0.7647 0.1615 -0.6238
vn -0.0394 -0.9982 0.0447
vn -0.0510 -0.9979 -0.0408
vn -0.9204 0.1775 -0.3484
vn 0.5124 0.1067 -0.8521
vn 0.9956 0.0936 0.0024
vn -0.6748 -0.0774 -0.7339
vn 0.9218 0.2659 -0.2819
vn -0.4216 -0.0690 0.9042
vn -0.7039 -0.1961 0.6827
vn 0.7018 -0.6404 0.3120
vn 0.6731 -0.4018 0.6209
vn -0.2414 0.0373 -0.9697
vn -0.9343 -0.3309 -0.1325
vn 0.6518 -0.1056 -0.7510
vn -0.0581 -0.2598 -0.9639
vn 0.1246 0.1110 -0.9860
vn -0.9592 -0.2768 -0.0577
vn 0.1246 -0.2312 -0.9649
vn -0.3050 -0.9302 0.2041
vn 0.2059 0.8368 0.5074
vn 0.2818 0.9020 -0.3271
vn -0.2332 -0.2719 0.9337
vn 0.3719 0.9073 -0.1962
vn -0.5851 0.8089 0.0575
vn -0.4389 0.8985 0.0055
vn -0.2855 -0.3771 0.8811
vn -0.3686 0.0955 -0.9247
vn -0.9000 0.0943 0.4255
vn -0.0559 0.9702 -0.2357
vn -0.2291 0.7377 0.6351
vn -0.2261 0.7836 -0.5787
vn 0.0778 0.2722 0.9591
vn -0.1188 0.0069 -0.9929
vn 0.4203 -0.8989 0.1238
vn -0.7177 -0.0419 0.6951
vn 0.1240 0.9428 -0.3095
vn -0.8542 -0.4573 0.2472
vn -0.3126 0.9245 -0.2182
vn -0.2320 0.9517 -0.2010
vn 0.7689 0.6301 -0.1082
vn 0.0059 -0.7099 0.7043
vn 0.3581 -0.8724 0.3326
vn 0.9902 -0.1400 0.0015
vn 0.6459 0.7360 -0.2030
vn 0.8006 -0.5681 -0.1905
vn 0.0317 -0.8529 -0.5212
vn -0.9256 0.3770 0.0344
vn -0.7746 -0.4483 -0.4461
vn 0.1842 0.0721 -0.9803
vn 0.7985 0.5054 -0.3270
vn 0.1732 0.2589 -0.9502
vn -0.8325 -0.0359 0.5528
vn 0.4416 -0.1079 0.8907
vn 0.6266 0.2055 -0.7518
vn 0.9629 -0.1637 -0.2145
vn 0.8922 -0.2760 0.3576
vn -0.2330 0.0358 0.9718
vn -0.7087 0.3282 0.6246
vn -0.9062 0.4167 0.0713
vn 0.2068 -0.5391 -0.8164
vn 0.1247 -0.9016 0.4142
vn -0.5056 0.7179 -0.4785
vn 0.9237 0.2144 -0.3174
vn 0.9326 0.2072 -0.2956
vn -0.0639 -0.7053 0.7060
vn -0.0011 0.9351 -0.3543
vn -0.3051 0.9518 0.0324
vn -0.5731 0.5870 -0.5719
vn 0.0584 0.9982 -0.0120
vn 0.8360 0.0141 -0.5485
vn 0.4182 -0.4284 0.8010
vn -0.8925 0.2904 0.3452
vn -0.8290 -0.2151 0.5162
vn -0.0054 -1.0000 0.0061
vn 0.6602 -0.3573 -0.6607
vn -0.9388 0.2420 -0.2450
vn -0.3807 0.0887 -0.9204
vn 0.7353 0.2149 -0.6428
vn 0.7331 0.2016 0.6495
vn 0.2264 0.0688 0.9716
vn -0.9881 -0.1498 -0.0345
vn -0.9760 -0.0716 0.2056
vn -0.9155 -0.2791 -0.2898
vn -0.9651 -0.2312 0.1229
vn -0.6548 -0.1164 -0.7468
vn -0.1941 -0.0414 -0.9801
vn 0.0312 -0.9995 0.0069
vn 0.8007 0.2430 0.5475
vn 0.7914 -0.5574 -0.2509
vn 0.2595 -0.1579 -0.9527
vn 0.8700 -0.3071 0.3858
vn 0.0569 0.3551 -0.9331
vn -0.2900 -0.2554 -0.9223
vn -0.8495 -0.5094 0.1374
vn 0.3817 0.8918 -0.2429
vn -0.1469 0.2329 0.9613
vn -0.0602 0.1921 0.9795
vn -0.5780 0.8159 0.0148
vn -0.7914 0.5699 -0.2211
vn -0.8313 0.5474 -0.0969
vn -0.3703 -0.7501 0.5479
vn -0.3210 -0.8451 -0.4275
vn -0.0222 0.9083 -0.4177
vn 0.7272 0.6861 0.0208
vn 0.1192 0.3077 0.9440
vn 0.2328 0.4087 0.8825
vn 0.2938 0.9499 -0.1068
vn 0.2415 0.9661 -0.0911
vn 0.4642 -0.0409 0.8848
vn -0.1370 0.9769 0.1643
vn 0.0764 0.3113 0.9473
vn 0.1331 0.2411 0.9613
vn 0.1569 -0.4562 -0.8759
vn 0.3813 -0.8647 0.3269
vn 0.3100 -0.8448 -0.4362
vn -0.2351 0.3665 0.9002
vn 0.2325 0.0710 0.9700
vn -0.9023 0.4305 0.0236
vn 0.7669 -0.4771 0.4291
vn 0.0454 0.9378 0.3443
vn -0.6909 -0.4904 -0.5313
vn 0.3984 0.7743 0.4917
vn 0.2618 0.8373 0.4800
vn -0.1917 -0.7949 -0.5756
vn -0.4097 -0.1255 0.9035
vn 0.2451 0.4866 0.8386
vn 0.9866 -0.1554 -0.0494
vn -0.8367 -0.4843 0.2556
vn -0.7855 -0.4512 -0.4236
vn 0.4139 0.2662 -0.8705
vn 0.2805 0.3331 0.9002
vn -0.5145 0.4946 -0.7005
vn 0.6932 0.6132 0.3788
vn -0.9536 0.1933 -0.2308
vn -0.9086 0.2052 -0.3637
vn 0.2353 -0.1460 0.9609
vn 0.9690 -0.0073 -0.2469
vn -0.5335 0.1592 -0.8307
vn -0.3979 -0.9168 0.0326
vn 0.3998 -0.0913 0.9120
vn 0.9916 -0.1270 -0.0244
vn 0.9366 0.2866 -0.2015
vn -0.6811 -0.6331 0.3679
vn -0.2944 -0.0189 -0.9555
vn -0.4763 0.4140 -0.7757
vn 0.6508 0.7425 0.1586
vn 0.3539 -0.8199 0.4501
vn 0.9713 0.1095 -0.2110
vn 0.9795 0.0476 -0.1960
vn -0.9052 0.0065 0.4250
vn 0.8682 -0.0369 -0.4949
vn 0.0198 -0.2787 0.9602
vn -0.9695 -0.0094 0.2447
usemtl tree_bark_light
s off
f 83//161 114//161 122//161
f 87//162 94//162 160//162
f 160//163 89//163 87//163
f 83//164 84//164 115//164
f 115//165 116//165 112//165
f 115//166 85//166 86//166
f 87//167 113//167 112//167
f 113//168 89//168 114//168
f 97//169 94//169 88//169
f 160//170 93//170 89//170
f 90//171 91//171 122//171
f 122//172 91//172 85//172
f 92//173 101//173 156//173
f 93//174 121//174 154//174
f 94//175 98//175 95//175
f 94//176 97//176 98//176
f 95//177 160//177 94//177
f 98//178 140//178 96//178
f 158//179 140//179 98//179
f 161//180 98//180 97//180
f 100//181 156//181 119//181
f 98//182 161//182 128//182
f 106//183 155//183 117//183
f 155//184 106//184 131//184
f 131//185 107//185 161//185
f 104//186 108//186 109//186
f 111//187 162//187 110//187
f 111//188 110//188 105//188
f 90//189 123//189 91//189
f 112//190 116//190 86//190
f 115//191 84//191 85//191
f 119//192 96//192 117//192
f 118//193 103//193 117//193
f 103//194 119//194 117//194
f 101//195 103//195 118//195
f 95//196 96//196 119//196
f 156//197 101//197 120//197
f 122//198 85//198 83//198
f 124//199 161//199 133//199
f 123//200 133//200 161//200
f 155//201 161//201 124//201
f 124//202 138//202 155//202
f 137//203 125//203 138//203
f 123//204 154//204 125//204
f 137//205 123//205 125//205
f 136//206 141//206 129//206
f 141//207 142//207 132//207
f 129//208 141//208 140//208
f 140//209 158//209 129//209
f 163//210 164//210 130//210
f 111//211 139//211 128//211
f 142//212 139//212 111//212
f 142//213 105//213 132//213
f 159//214 165//214 124//214
f 166//215 127//215 133//215
f 144//216 127//216 166//216
f 165//217 159//217 126//217
f 134//218 104//218 109//218
f 109//219 92//219 134//219
f 102//220 92//220 99//220
f 99//221 135//221 102//221
f 157//222 163//222 130//222
f 130//223 129//223 157//223
f 123//224 137//224 153//224
f 165//225 138//225 124//225
f 165//226 144//226 137//226
f 137//227 144//227 146//227
f 145//228 152//228 153//228
f 146//229 166//229 150//229
f 146//230 144//230 166//230
f 151//231 146//231 150//231
f 148//232 149//232 147//232
f 148//233 147//233 151//233
f 145//234 147//234 152//234
f 153//235 166//235 133//235
f 152//236 150//236 153//236
f 112//237 83//237 115//237
f 95//238 120//238 93//238 160//238
f 115//239 86//239 116//239
f 112//240 86//240 87//240
f 87//241 89//241 113//241
f 89//242 154//242 114//242
f 154//243 90//243 114//243
f 97//244 88//244 91//244
f 91//245 123//245 97//245
f 88//246 86//246 85//246
f 85//247 91//247 88//247
f 86//248 88//248 94//248
f 86//249 94//249 87//249
f 114//250 83//250 112//250 113//250
f 89//251 93//251 154//251
f 92//252 156//252 134//252
f 134//253 156//253 100//253 104//253
f 93//254 120//254 121//254
f 96//255 140//255 141//255
f 96//256 95//256 98//256
f 161//257 97//257 123//257
f 106//258 96//258 141//258 132//258
f 102//259 103//259 101//259
f 101//260 92//260 102//260
f 100//261 119//261 103//261
f 100//262 103//262 102//262
f 102//263 104//263 100//263
f 128//264 161//264 107//264
f 98//265 128//265 158//265
f 106//266 117//266 96//266
f 121//267 155//267 138//267 125//267
f 161//268 155//268 131//268
f 131//269 106//269 132//269
f 109//270 108//270 99//270
f 135//271 99//271 108//271
f 90//272 154//272 123//272
f 118//273 117//273 155//273
f 101//274 118//274 121//274
f 118//275 155//275 121//275
f 119//276 156//276 95//276
f 101//277 121//277 120//277
f 120//278 95//278 156//278
f 83//279 85//279 84//279
f 122//280 114//280 90//280
f 157//281 158//281 143//281 163//281
f 154//282 121//282 125//282
f 127//283 126//283 159//283
f 128//284 139//284 158//284
f 141//285 136//285 143//285
f 163//286 143//286 136//286
f 129//287 158//287 157//287
f 107//288 131//288 110//288 162//288
f 164//289 163//289 136//289
f 164//290 136//290 130//290
f 128//291 107//291 162//291
f 162//292 111//292 128//292
f 142//293 111//293 105//293
f 132//294 110//294 131//294
f 149//295 148//295 151//295 150//295
f 132//296 105//296 110//296
f 159//297 124//297 133//297
f 133//298 127//298 159//298
f 144//299 126//299 127//299
f 165//300 126//300 144//300
f 102//301 135//301 104//301
f 135//302 108//302 104//302
f 99//303 92//303 109//303
f 129//304 130//304 136//304
f 137//305 138//305 165//305
f 123//306 153//306 133//306
f 139//307 143//307 158//307
f 142//308 143//308 139//308
f 143//309 142//309 141//309
f 145//310 153//310 137//310
f 145//311 137//311 146//311
f 146//312 151//312 145//312
f 152//313 149//313 150//313
f 151//314 147//314 145//314
f 152//315 147//315 149//315
f 153//316 150//316 166//316
