# Blender v2.78 (sub 0) OBJ File: 'tree-pyramidal.blend'
# www.blender.org
mtllib tree-pyramidal.mtl
o leaves_Sphere
v 1.676622 4.411403 0.003577
v 2.633625 1.974595 1.616174
v 1.979010 3.905703 0.146467
v 1.774551 4.847308 0.787303
v 1.511292 4.634730 0.679388
v 1.842026 3.974975 1.162423
v 0.803791 6.857496 0.237202
v 0.474936 5.854860 1.195090
v 1.039494 4.811867 1.563232
v 1.179892 4.025852 1.706377
v 1.133808 3.844142 1.684322
v 1.460782 2.027481 2.694978
v 2.040556 1.954923 1.960119
v -0.130107 4.395486 1.679671
v 0.244229 6.684976 0.782145
v 0.074984 2.076870 2.893267
v -0.095593 5.878001 1.328005
v -0.411539 4.610749 1.921229
v -0.080605 3.870463 2.061183
v -0.747358 3.714624 1.797044
v 0.002153 2.910614 2.202585
v -1.322365 2.106933 2.620677
v -0.657298 4.462968 1.507661
v -1.199410 2.011816 2.103060
v -2.196826 2.087348 1.952137
v -0.790736 5.968542 0.882508
v -1.390133 5.099632 0.818091
v -1.157985 4.878158 0.706955
v -1.160715 6.737535 0.649124
v -2.118251 2.817873 0.755812
v -2.880529 3.009066 -0.291578
v -1.181028 6.857593 -0.030343
v -1.445048 6.251153 0.103335
v -1.507700 4.776822 0.182618
v -2.049202 3.956687 0.128546
v -0.779900 6.997540 -0.796637
v -1.223579 6.064855 -0.736664
v -0.698588 6.097543 -1.386722
v -1.375746 3.940722 -1.811017
v -0.363399 6.758262 -0.993921
v -1.040678 4.862715 -1.751953
v -0.372386 3.978144 -2.131188
v -1.374174 2.881558 -2.630545
v -0.236071 1.890975 -3.237411
v 0.045720 4.847840 -2.145716
v -0.711528 4.015123 -2.199144
v 0.930222 2.946718 -2.811446
v 0.676673 4.614679 -1.549174
v 1.953745 1.974534 -2.426598
v 1.845638 4.039686 -1.144795
v 1.112062 5.804192 -1.242298
v 1.043978 5.692770 -1.049219
v 2.148738 1.993002 -1.437964
v 1.799968 4.583851 -0.698672
v 1.877558 3.893864 -0.512963
v 2.958235 1.981020 -0.400249
v 0.254910 6.702961 -1.135821
v -0.916821 6.770484 -0.242937
v 0.850239 6.944809 0.551739
v 2.097602 2.697969 0.942362
v 1.576914 2.710708 1.800242
v 0.268993 3.070576 2.552536
v -0.862468 3.870776 1.902249
v -0.964840 4.803607 1.531248
v -1.602498 4.104139 0.960574
v -1.689635 3.843084 0.715024
v -2.545012 2.908175 -0.153830
v -1.926650 3.785995 0.154198
v -2.667033 1.998390 -0.580238
v -1.483117 4.597223 -0.586854
v -1.015795 2.518229 -2.364724
v 0.609775 2.587833 -2.410794
v 0.503718 1.906179 -3.126865
v 0.525418 3.999839 -2.243808
v 0.017940 2.222680 -1.011305
v 0.912926 3.749909 -1.979756
v 1.777658 4.744861 -1.136568
v 1.472211 4.599372 -0.942337
v 1.002750 6.994615 -0.244303
v 0.444238 7.751752 -0.091518
v 1.307364 6.128342 0.108712
v 1.987869 4.676939 -0.164095
v 2.683613 3.028661 0.146142
v 2.413980 2.908004 1.504804
v 0.111205 2.304201 -0.084056
v 1.054219 6.105654 0.809021
v 1.020062 5.952235 0.690020
v 1.801891 3.739353 1.111670
v 0.388801 7.690077 0.151705
v 0.263203 5.986091 1.436729
v 1.887032 2.920251 2.143339
v 0.148737 3.859126 1.863226
v 0.719180 4.678689 1.387991
v -0.106598 7.934909 0.219401
v 0.142201 4.717950 1.956096
v -0.874894 2.943974 2.551212
v -0.561761 6.592135 0.775135
v -0.827313 6.068458 1.062786
v -1.426330 2.944052 1.798103
v -1.362306 6.239955 0.632393
v -1.972270 3.012052 1.732859
v -1.001452 6.639684 0.487051
v -1.813808 5.021248 0.243462
v -0.514415 7.794700 0.060929
v -3.279941 2.071262 -0.360396
v -1.320654 6.088514 0.100413
v -1.629587 4.801476 -1.061718
v -3.205750 2.028319 -1.035131
v 0.059250 8.926373 -0.235884
v -0.304190 7.854005 -0.391965
v -1.774873 4.011112 -1.230402
v -1.864489 3.901910 -0.820942
v -2.669402 3.136692 -1.126136
v -2.417833 2.801258 -0.883039
v -1.336383 1.909999 -2.955517
v -1.030993 5.883158 -0.973549
v -1.067219 3.711852 -1.896709
v -0.402720 5.897243 -1.390041
v -0.799778 4.703813 -1.580408
v -0.395359 3.175658 -2.833884
v 0.007447 7.804153 -0.681817
v 0.340072 6.010985 -1.626628
v 0.130571 4.698232 -1.775519
v 0.202815 5.882297 -1.455623
v 0.305836 7.805464 -0.654208
v 1.198196 3.912805 -1.890763
v 1.481242 2.987979 -2.551765
v 1.990258 2.860672 -1.420057
v 2.735096 2.033599 -1.491844
v 0.442369 7.728207 -0.404710
v 1.756251 3.837051 -0.994162
v 0.725782 6.651148 -0.758937
v 1.306757 5.931921 -0.097451
v 2.410902 3.007540 -1.417445
v 2.272699 2.733932 -0.339455
v 0.423533 6.839828 0.843268
v -0.589034 6.712855 0.965122
v -0.093318 6.848259 -1.356188
v 0.504115 6.792362 -1.320549
v 0.789429 6.730419 -1.064034
vn 0.5420 -0.8389 0.0505
vn 0.8781 -0.3477 0.3287
vn 0.0345 -0.9994 0.0024
vn 0.7055 -0.6532 0.2751
vn 0.4824 -0.7897 0.3790
vn 0.8318 0.5544 -0.0284
vn 0.7188 0.6170 0.3203
vn 0.5190 -0.8544 0.0271
vn 0.9699 -0.1963 0.1442
vn 0.8988 0.3300 0.2885
vn 0.7399 0.6411 0.2038
vn 0.8574 -0.4207 0.2963
vn 0.4672 -0.7851 0.4067
vn 0.3571 -0.9053 0.2302
vn 0.4312 0.6328 0.6431
vn 0.6083 -0.2459 0.7547
vn 0.5665 0.6875 0.4543
vn 0.3450 0.6007 0.7212
vn 0.5386 0.6345 0.5544
vn 0.5276 0.5221 0.6701
vn 0.0204 -0.8613 0.5076
vn 0.2158 0.4987 0.8395
vn 0.3418 -0.9358 0.0865
vn 0.1945 -0.9403 0.2792
vn 0.0396 0.5090 0.8598
vn -0.0129 -0.9946 0.1027
vn -0.2165 -0.8719 0.4393
vn -0.3906 0.5675 0.7248
vn 0.0787 0.5909 0.8029
vn -0.1645 0.7037 0.6912
vn -0.1365 0.6249 0.7687
vn -0.3941 0.4684 0.7908
vn -0.4250 0.4881 0.7623
vn -0.4166 0.6701 0.6143
vn -0.5082 0.5925 0.6250
vn -0.5934 0.5372 0.5994
vn -0.6395 -0.6941 0.3305
vn -0.3724 0.5861 0.7196
vn -0.5064 0.5715 0.6457
vn -0.6859 0.4296 0.5874
vn -0.7276 -0.6678 0.1567
vn -0.5191 -0.7879 0.3313
vn -0.4542 0.7477 0.4843
vn -0.7394 0.5513 0.3866
vn -0.9168 -0.0646 0.3940
vn -0.4465 -0.8933 0.0509
vn -0.7231 -0.5603 0.4040
vn -0.7071 0.4472 0.5477
vn -0.7577 0.4174 0.5017
vn -0.4838 -0.7409 0.4659
vn -0.7355 0.5473 0.3994
vn -0.4943 -0.7347 0.4647
vn -0.6750 0.7063 0.2134
vn -0.3061 -0.9507 0.0492
vn -0.7131 0.6896 0.1261
vn -0.7976 -0.5909 -0.1211
vn -0.6828 0.7288 0.0514
vn -0.5953 -0.7865 0.1646
vn -0.7927 -0.6050 -0.0748
vn -0.7687 0.5743 -0.2816
vn -0.7304 0.6718 -0.1231
vn -0.6610 0.7172 -0.2205
vn -0.0994 -0.9937 0.0523
vn -0.8200 0.4793 -0.3128
vn -0.4941 0.7163 -0.4927
vn -0.5385 -0.7743 -0.3323
vn -0.7778 -0.0051 -0.6284
vn -0.4558 -0.3008 -0.8377
vn 0.1040 -0.9854 0.1350
vn -0.4745 0.5367 -0.6977
vn -0.4547 0.6783 -0.5772
vn -0.3345 0.6262 -0.7042
vn -0.1579 0.7296 -0.6654
vn -0.2946 0.4723 -0.8307
vn 0.0019 -0.5821 -0.8131
vn -0.2172 -0.6882 -0.6923
vn -0.0017 -0.9890 0.1476
vn -0.0614 -0.7683 -0.6372
vn 0.1252 0.6516 -0.7482
vn 0.2052 0.7061 -0.6777
vn 0.0740 0.5581 -0.8265
vn 0.0890 0.7148 -0.6936
vn 0.0148 -0.9259 -0.3776
vn 0.4691 0.4397 -0.7659
vn 0.3731 0.6529 -0.6592
vn 0.2624 0.6968 -0.6675
vn 0.2948 -0.8168 -0.4958
vn 0.4861 0.5446 -0.6834
vn 0.2974 0.6692 -0.6810
vn 0.3150 0.7067 -0.6336
vn 0.0398 -0.8715 -0.4889
vn -0.0806 -0.9883 0.1293
vn 0.5137 0.6527 -0.5569
vn 0.5454 -0.7357 -0.4016
vn 0.6344 0.5076 -0.5830
vn 0.6421 -0.6192 -0.4520
vn -0.5385 -0.4780 0.6939
vn 0.6919 0.6758 -0.2542
vn 0.7303 0.6739 -0.1118
vn 0.7328 0.6702 -0.1175
vn 0.8543 -0.5199 0.0012
vn 0.8800 0.3427 -0.3291
vn 0.7251 0.5934 -0.3493
vn 0.8551 -0.4941 -0.1572
vn 0.8650 0.4776 -0.1536
vn 0.6208 -0.7797 -0.0824
vn 0.7989 0.5994 -0.0498
vn 0.6584 -0.7453 -0.1048
vn -0.1615 -0.9867 -0.0162
vn -0.0004 -0.9999 -0.0112
vn 0.7788 -0.6273 -0.0005
vn -0.5939 -0.6821 -0.4266
vn -0.5745 -0.6976 -0.4281
vn -0.4531 -0.8669 -0.2079
vn -0.3010 -0.8238 0.4803
vn -0.2814 -0.9184 0.2780
vn 0.4909 -0.7460 0.4499
vn 0.7051 -0.7032 0.0911
vn -0.0661 -0.9521 0.2985
vn 0.8080 0.5578 0.1897
vn 0.7937 0.5803 -0.1824
vn 0.2106 0.6163 0.7589
vn 0.8758 0.4694 0.1123
vn 0.7837 0.5590 0.2709
vn 0.8652 0.4945 0.0829
vn 0.4904 -0.8694 -0.0598
vn 0.6887 0.7181 0.1004
vn 0.8073 0.5033 0.3081
vn 0.6254 0.4811 0.6144
vn 0.2197 -0.9273 0.3031
vn 0.5217 0.6586 0.5423
vn 0.2414 -0.9458 0.2174
vn 0.5768 0.7432 0.3390
vn 0.5999 -0.2648 0.7550
vn 0.5499 0.6518 0.5222
vn 0.4252 0.6249 0.6548
vn 0.6853 -0.1891 0.7032
vn 0.5574 -0.5828 0.5914
vn 0.1604 -0.9619 0.2215
vn 0.5159 0.6412 0.5681
vn 0.3145 0.4628 0.8288
vn 0.1697 0.5261 0.8333
vn 0.1739 -0.1620 0.9713
vn 0.2974 0.3569 0.8855
vn 0.3886 0.5909 0.7070
vn 0.2509 0.7534 0.6078
vn -0.1717 0.5781 0.7977
vn 0.0174 -0.9143 0.4047
vn 0.0907 -0.8397 0.5355
vn -0.0242 -0.9966 0.0793
vn -0.0238 -0.9889 -0.1465
vn 0.3262 -0.7588 0.5638
vn 0.1312 0.6392 0.7578
vn -0.0728 0.6501 0.7564
vn 0.1027 -0.9320 0.3477
vn -0.1959 0.6675 0.7184
vn -0.0540 -0.9843 0.1681
vn -0.1424 0.4485 0.8823
vn 0.0884 -0.6903 0.7181
vn -0.2582 -0.8509 0.4575
vn -0.5954 -0.5763 0.5598
vn -0.0620 -0.9970 0.0453
vn 0.1397 -0.9661 0.2172
vn -0.1552 -0.6281 0.7625
vn -0.0657 0.5058 0.8601
vn -0.1858 0.6768 0.7123
vn -0.6596 0.7516 0.0015
vn -0.0982 -0.9827 0.1572
vn 0.1199 -0.9909 -0.0606
vn -0.6785 -0.7333 0.0440
vn -0.3851 0.5866 0.7124
vn -0.3898 0.6045 0.6947
vn -0.6610 0.6590 0.3590
vn -0.7330 -0.3200 0.6003
vn -0.4520 0.4336 0.7796
vn -0.4598 0.6296 0.6263
vn -0.1459 -0.9659 0.2138
vn -0.7955 0.5030 0.3380
vn -0.7446 -0.4622 0.4817
vn -0.7140 0.6174 0.3301
vn -0.0823 -0.9956 0.0455
vn -0.0973 -0.9936 0.0582
vn -0.7091 0.6297 0.3172
vn -0.8142 0.5671 0.1245
vn -0.5342 -0.8103 0.2409
vn -0.8197 0.5514 -0.1549
vn -0.9003 0.3902 -0.1928
vn -0.7995 -0.6006 -0.0117
vn -0.9782 0.0733 -0.1945
vn -0.8675 0.3460 -0.3574
vn -0.4846 0.6829 -0.5466
vn 0.7397 0.6621 0.1206
vn -0.7676 0.5673 -0.2982
vn -0.3181 -0.9444 0.0830
vn -0.6633 -0.6963 -0.2743
vn -0.7627 0.5591 -0.3251
vn -0.7258 -0.6848 -0.0648
vn 0.0954 -0.9924 0.0777
vn -0.8151 0.5617 -0.1420
vn -0.6337 0.6091 -0.4769
vn -0.5032 0.6692 -0.5467
vn -0.5691 -0.7177 -0.4014
vn -0.6330 0.6069 -0.4807
vn -0.3058 -0.8966 -0.3204
vn -0.0589 -0.9983 0.0041
vn -0.7036 0.4352 -0.5617
vn -0.6213 0.6665 -0.4119
vn 0.5275 0.7034 -0.4765
vn -0.6029 -0.7282 -0.3261
vn -0.6197 -0.7104 -0.3337
vn -0.4643 0.5582 -0.6876
vn -0.5023 0.5814 -0.6400
vn -0.4554 0.5448 -0.7041
vn -0.0090 -0.9994 0.0321
vn -0.4252 -0.6170 -0.6622
vn -0.1947 -0.8407 -0.5053
vn -0.6190 0.3145 -0.7196
vn 0.0548 -0.7365 -0.6742
vn 0.0076 -0.5856 -0.8106
vn -0.1381 0.5570 -0.8190
vn -0.1416 0.5610 -0.8156
vn -0.0511 0.7887 -0.6126
vn -0.1101 -0.1463 -0.9831
vn -0.0754 0.5613 -0.8242
vn -0.0806 -0.9304 -0.3575
vn -0.1523 0.6496 -0.7448
vn -0.0234 0.5476 -0.8364
vn -0.0251 -0.9253 -0.3783
vn 0.1018 0.5663 -0.8179
vn 0.0842 0.3646 -0.9273
vn -0.1082 -0.6959 -0.7099
vn 0.4723 0.4361 -0.7660
vn 0.3163 -0.7212 -0.6164
vn 0.4230 0.6309 -0.6505
vn 0.4213 -0.2637 -0.8678
vn 0.0626 -0.8210 -0.5675
vn 0.0421 -0.9991 0.0104
vn 0.5048 0.5710 -0.6474
vn 0.3666 -0.8918 -0.2652
vn 0.5435 0.5891 -0.5980
vn 0.8220 0.4841 -0.2999
vn 0.3208 -0.9143 -0.2471
vn 0.6016 0.5886 -0.5400
vn 0.0695 -0.9976 0.0049
vn -0.0877 -0.9915 0.0960
vn 0.2370 -0.9079 -0.3459
vn 0.8674 0.3299 -0.3725
vn 0.7762 0.5126 -0.3672
vn 0.3245 -0.9259 -0.1934
vn 0.0634 -0.9961 -0.0609
vn 0.8535 -0.4734 -0.2176
vn 0.1159 -0.9691 -0.2176
vn 0.8193 0.5698 -0.0638
vn 0.9152 -0.3802 -0.1340
vn 0.9509 0.3081 -0.0288
vn 0.7763 0.6138 -0.1437
vn 0.8231 0.5136 -0.2422
vn 0.7045 -0.7039 0.0906
vn 0.0813 -0.9687 -0.2347
vn 0.0926 -0.9395 -0.3298
vn -0.0521 -0.8696 -0.4911
vn -0.1629 -0.9222 -0.3506
vn -0.5945 -0.5556 -0.5813
vn -0.6060 -0.7862 -0.1208
vn 0.0914 -0.8345 0.5434
vn 0.1662 -0.5225 0.8363
vn 0.4442 -0.8780 0.1781
usemtl tree_green
s off
f 60//1 135//1 83//1
f 81//2 87//2 133//2
f 13//3 56//3 2//3
f 1//4 82//4 4//4
f 4//5 5//5 1//5
f 5//6 3//6 50//6
f 89//7 59//7 80//7
f 60//8 83//8 84//8
f 6//9 88//9 3//9
f 109//10 89//10 80//10
f 83//11 88//11 84//11
f 87//12 81//12 86//12
f 4//13 9//13 5//13
f 91//14 61//14 60//14
f 15//15 86//15 7//15
f 11//16 88//16 10//16
f 91//17 84//17 11//17
f 59//18 89//18 136//18
f 61//19 12//19 2//19
f 9//20 87//20 8//20
f 91//21 21//21 61//21
f 17//22 95//22 8//22
f 93//23 9//23 14//23
f 10//24 19//24 92//24
f 136//25 94//25 137//25
f 13//26 16//26 24//26
f 90//27 98//27 26//27
f 26//28 17//28 90//28
f 93//29 14//29 19//29
f 92//30 20//30 96//30
f 16//31 21//31 22//31
f 17//32 64//32 18//32
f 64//33 17//33 26//33
f 20//34 101//34 96//34
f 63//35 23//35 28//35
f 28//36 65//36 63//36
f 63//37 65//37 20//37
f 94//38 29//38 137//38
f 22//39 99//39 25//39
f 26//40 27//40 64//40
f 64//41 27//41 23//41
f 26//42 98//42 100//42
f 101//43 20//43 66//43
f 34//44 65//44 28//44
f 66//45 65//45 68//45
f 26//46 100//46 33//46
f 33//47 106//47 26//47
f 27//48 26//48 106//48
f 27//49 106//49 103//49
f 27//50 34//50 28//50
f 67//51 105//51 30//51
f 27//52 103//52 34//52
f 66//53 68//53 31//53
f 31//54 67//54 30//54
f 102//55 33//55 100//55
f 35//56 112//56 68//56
f 33//57 102//57 58//57
f 34//58 103//58 70//58
f 37//59 106//59 33//59
f 32//60 104//60 110//60
f 108//61 105//61 67//61
f 67//62 114//62 108//62
f 69//63 105//63 108//63
f 106//64 116//64 107//64
f 112//65 117//65 113//65
f 43//66 71//66 113//66
f 116//67 37//67 38//67
f 39//68 46//68 117//68
f 75//69 69//69 44//69
f 41//70 116//70 118//70
f 43//71 117//71 42//71
f 42//72 120//72 43//72
f 71//73 44//73 115//73
f 41//74 118//74 45//74
f 120//75 72//75 71//75
f 124//76 38//76 122//76
f 73//77 75//77 44//77
f 42//78 74//78 76//78
f 47//79 120//79 42//79
f 42//80 76//80 47//80
f 121//81 125//81 139//81
f 72//82 73//82 44//82
f 48//83 123//83 45//83
f 45//84 124//84 52//84
f 48//85 74//85 123//85
f 76//86 127//86 47//86
f 72//87 47//87 127//87
f 122//88 57//88 51//88
f 49//89 73//89 72//89
f 49//90 72//90 128//90
f 51//91 52//91 124//91
f 75//92 73//92 53//92
f 126//93 48//93 50//93
f 126//94 131//94 76//94
f 139//95 125//95 140//95
f 131//96 126//96 50//96
f 78//97 48//97 54//97
f 131//98 55//98 134//98
f 128//99 135//99 56//99
f 56//100 129//100 128//100
f 52//101 51//101 81//101
f 81//102 133//102 52//102
f 77//103 52//103 133//103
f 55//104 131//104 50//104
f 82//105 77//105 133//105
f 54//106 82//106 1//106
f 80//107 79//107 130//107
f 134//108 83//108 135//108
f 13//109 85//109 53//109
f 53//110 56//110 13//110
f 132//111 140//111 79//111
f 36//112 40//112 58//112
f 58//113 32//113 36//113
f 102//114 32//114 58//114
f 97//115 137//115 29//115
f 29//116 102//116 97//116
f 136//117 15//117 59//117
f 7//118 79//118 59//118
f 1//119 5//119 50//119
f 80//120 59//120 79//120
f 81//121 132//121 7//121
f 11//122 92//122 62//122 91//122
f 4//123 82//123 133//123
f 133//124 87//124 4//124
f 5//125 6//125 3//125
f 3//126 88//126 55//126
f 83//127 55//127 88//127
f 7//128 86//128 81//128
f 4//129 87//129 9//129
f 5//130 9//130 93//130
f 5//131 93//131 6//131
f 91//132 60//132 84//132
f 2//133 60//133 61//133
f 88//134 6//134 10//134
f 11//135 84//135 88//135
f 15//136 90//136 86//136
f 90//137 8//137 87//137
f 87//138 86//138 90//138
f 13//139 2//139 12//139
f 10//140 6//140 93//140
f 8//141 95//141 9//141
f 93//142 19//142 10//142
f 10//143 92//143 11//143
f 109//144 94//144 89//144
f 136//145 89//145 94//145
f 61//146 21//146 12//146
f 14//147 23//147 63//147 19//147
f 62//148 21//148 91//148
f 90//149 17//149 8//149
f 13//150 12//150 16//150
f 13//151 24//151 85//151
f 14//152 9//152 95//152
f 16//153 12//153 21//153
f 92//154 96//154 62//154
f 62//155 96//155 21//155
f 98//156 90//156 15//156
f 16//157 22//157 24//157
f 18//158 95//158 17//158
f 18//159 14//159 95//159
f 23//160 14//160 18//160
f 18//161 64//161 23//161
f 101//162 99//162 21//162 96//162
f 20//163 92//163 19//163
f 19//164 63//164 20//164
f 15//165 97//165 98//165
f 22//166 21//166 99//166
f 113//167 31//167 68//167 112//167
f 22//168 25//168 24//168
f 85//169 24//169 69//169
f 23//170 27//170 28//170
f 100//171 98//171 97//171
f 97//172 102//172 100//172
f 25//173 99//173 30//173
f 66//174 20//174 65//174
f 109//175 104//175 94//175
f 29//176 94//176 104//176
f 101//177 30//177 99//177
f 34//178 35//178 65//178
f 65//179 35//179 68//179
f 30//180 105//180 25//180
f 24//181 25//181 105//181
f 69//182 24//182 105//182
f 66//183 31//183 101//183
f 104//184 32//184 29//184
f 31//185 30//185 101//185
f 35//186 34//186 70//186
f 106//187 107//187 103//187
f 70//188 103//188 107//188
f 35//189 111//189 112//189
f 104//190 109//190 110//190
f 114//191 71//191 115//191 108//191
f 60//192 2//192 56//192 135//192
f 36//193 32//193 110//193
f 114//194 67//194 31//194
f 31//195 113//195 114//195
f 58//196 37//196 33//196
f 37//197 116//197 106//197
f 75//198 85//198 69//198
f 35//199 70//199 111//199
f 58//200 40//200 37//200
f 117//201 43//201 113//201
f 71//202 114//202 113//202
f 38//203 37//203 40//203
f 119//204 70//204 107//204 41//204
f 69//205 108//205 115//205
f 116//206 41//206 107//206
f 119//207 39//207 111//207 70//207
f 134//208 127//208 76//208 131//208
f 112//209 111//209 39//209
f 39//210 117//210 112//210
f 119//211 46//211 39//211
f 36//212 110//212 121//212
f 121//213 138//213 36//213
f 44//214 69//214 115//214
f 118//215 116//215 38//215
f 119//216 41//216 45//216
f 110//217 109//217 121//217
f 42//218 117//218 46//218
f 43//219 120//219 71//219
f 40//220 57//220 38//220
f 57//221 122//221 38//221
f 71//222 72//222 44//222
f 124//223 118//223 38//223
f 45//224 118//224 124//224
f 123//225 119//225 45//225
f 46//226 119//226 123//226
f 123//227 74//227 46//227
f 42//228 46//228 74//228
f 121//229 139//229 138//229
f 121//230 109//230 125//230
f 47//231 72//231 120//231
f 52//232 77//232 45//232
f 48//233 45//233 77//233
f 48//234 126//234 74//234
f 76//235 74//235 126//235
f 124//236 122//236 51//236
f 53//237 73//237 49//237
f 48//238 78//238 50//238
f 127//239 128//239 72//239
f 51//240 57//240 132//240
f 140//241 125//241 130//241
f 128//242 127//242 134//242
f 128//243 129//243 49//243
f 49//244 129//244 53//244
f 53//245 85//245 75//245
f 54//246 48//246 77//246
f 125//247 109//247 130//247
f 79//248 140//248 130//248
f 134//249 135//249 128//249
f 53//250 129//250 56//250
f 54//251 77//251 82//251
f 54//252 1//252 78//252
f 50//253 78//253 1//253
f 55//254 50//254 3//254
f 130//255 109//255 80//255
f 83//256 134//256 55//256
f 81//257 51//257 132//257
f 7//258 132//258 79//258
f 140//259 132//259 57//259
f 57//260 139//260 140//260
f 138//261 139//261 57//261
f 40//262 138//262 57//262
f 36//263 138//263 40//263
f 102//264 29//264 32//264
f 97//265 15//265 137//265
f 15//266 136//266 137//266
f 59//267 15//267 7//267
o trunk_Cube
v 0.065239 0.011577 0.370610
v -0.221539 -0.010605 0.316351
v 0.070569 0.858406 -0.297504
v 0.007337 -0.052761 0.281262
v -0.114839 0.707263 -0.293511
v 0.150647 0.010289 -0.336706
v 0.366750 0.010699 0.081002
v -0.263014 1.573242 -0.019474
v 0.198901 2.239453 0.024822
v -0.102421 -0.027706 -0.353087
v 0.263877 -0.018269 -0.269950
v 0.339685 -0.030309 -0.133546
v 0.269277 -0.018696 0.268582
v -0.367467 0.010903 -0.080628
v -0.342151 -0.028796 0.143257
v -0.086367 2.428622 0.138785
v 0.117176 2.099969 0.143698
v 0.025707 5.522987 -0.216920
v -0.150868 5.447255 -0.089182
v 0.115374 5.503716 0.019335
v 0.010557 5.511070 0.060276
v 0.121645 5.560866 -0.102743
v -0.109499 3.311795 -0.284867
v -0.202026 1.763187 0.111283
v -0.251294 0.735130 -0.204693
v -0.076368 5.547567 -0.076136
v -0.100347 5.438909 -0.219616
v -0.277145 -0.017972 -0.256091
v 0.216222 1.440201 -0.153189
v -0.115852 5.458795 0.016657
vn -0.0533 -0.7937 0.6060
vn -0.1470 -0.9678 0.2041
vn -0.0775 -0.9962 -0.0396
vn 0.0520 -0.9918 -0.1164
vn 0.1312 -0.9900 0.0516
vn 0.9868 0.0810 -0.1400
vn 0.0568 0.0515 -0.9971
vn 0.4715 -0.8753 0.1078
vn -0.4758 -0.8737 -0.1011
vn -0.6912 0.0905 0.7170
vn 0.5125 0.0861 -0.8544
vn -0.7986 0.5668 0.2024
vn -0.7389 0.5909 -0.3240
vn -0.4724 0.7286 0.4960
vn -0.0276 0.9611 0.2748
vn 0.0162 0.0250 0.9996
vn 0.3657 0.0342 0.9301
vn 0.9977 0.0256 0.0633
vn -0.9225 0.0314 0.3847
vn -0.9499 0.0331 0.3107
vn 0.0009 0.0307 -0.9995
vn 0.7624 0.0185 -0.6468
vn 0.1349 -0.8435 0.5200
vn -0.8782 0.0771 0.4721
vn -0.5450 0.0039 -0.8385
vn -0.0243 0.0034 -0.9997
vn -0.0567 -0.9979 -0.0296
vn 0.0150 -0.9990 -0.0421
vn -0.9905 0.0614 0.1229
vn -0.5053 0.0687 -0.8602
vn -0.9111 0.0768 -0.4050
vn -0.8832 0.0620 -0.4649
vn -0.0858 0.0791 -0.9932
vn -0.9645 0.0270 -0.2626
vn 0.8746 0.0670 -0.4802
vn 0.7789 0.0744 0.6227
vn 0.8778 0.0907 0.4704
vn 0.9751 0.0681 -0.2110
vn 0.1566 -0.7838 -0.6009
vn 0.4557 0.0849 0.8861
vn -0.1914 0.0818 0.9781
vn 0.1432 0.1034 0.9843
vn -0.4806 0.7359 -0.4770
vn 0.2266 0.8776 0.4225
vn -0.0970 0.9662 -0.2390
vn -0.4062 0.0329 0.9132
vn -0.3388 0.0346 0.9402
vn 0.8118 0.0218 0.5836
vn 0.9997 0.0230 -0.0061
vn -0.7727 0.0228 -0.6344
vn 0.6531 0.0243 -0.7569
vn 0.1867 0.0188 -0.9822
usemtl tree_bark_dark
s off
f 141//268 142//268 144//268
f 144//269 142//269 155//269
f 155//270 168//270 150//270
f 150//271 151//271 152//271
f 152//272 153//272 144//272
f 147//273 152//273 169//273
f 143//274 146//274 150//274
f 147//275 153//275 152//275
f 154//276 168//276 155//276
f 156//277 164//277 142//277
f 151//278 146//278 143//278 169//278
f 159//279 170//279 166//279
f 159//280 166//280 167//280
f 161//281 166//281 170//281
f 166//282 161//282 162//282
f 157//283 161//283 156//283
f 160//284 161//284 157//284
f 149//285 162//285 160//285
f 148//286 164//286 170//286
f 170//287 159//287 148//287
f 163//288 167//288 158//288
f 158//289 162//289 143//289
f 141//290 144//290 153//290
f 164//291 148//291 155//291 142//291
f 145//292 165//292 163//292
f 143//293 145//293 163//293
f 144//294 155//294 150//294
f 144//295 150//295 152//295
f 154//296 155//296 148//296
f 165//297 145//297 150//297 168//297
f 148//298 165//298 154//298
f 154//299 165//299 168//299
f 143//300 150//300 145//300
f 165//301 148//301 159//301 167//301
f 169//302 152//302 151//302
f 147//303 149//303 157//303
f 157//304 153//304 147//304
f 149//305 147//305 169//305
f 150//306 146//306 151//306
f 157//307 141//307 153//307
f 156//308 142//308 141//308
f 156//309 141//309 157//309
f 158//310 167//310 166//310
f 160//311 162//311 161//311
f 166//312 162//312 158//312
f 170//313 164//313 156//313
f 156//314 161//314 170//314
f 160//315 157//315 149//315
f 149//316 169//316 162//316
f 165//317 167//317 163//317
f 143//318 162//318 169//318
f 143//319 163//319 158//319
