# Blender v2.78 (sub 0) OBJ File: 'tree-branched.blend'
# www.blender.org
mtllib tree-branched.mtl
o leaves_Icosphere
v -1.633790 6.763953 -0.079387
v -2.601661 6.796504 1.626355
v -3.951441 7.592101 0.159946
v -3.186923 7.666048 -1.639618
v -2.336944 6.655345 1.048174
v -0.685027 6.732742 0.517309
v -0.643353 6.303411 -2.093288
v -0.221022 6.461748 -0.131047
v -3.723734 6.555060 -0.469676
v -2.103804 6.834456 -0.310176
v -2.220878 6.356532 -2.515208
v 0.346370 6.992164 0.045296
v 0.028604 6.840341 0.569811
v 0.451118 6.860166 -0.973464
v -1.942520 6.811554 1.741272
v -4.436567 6.672408 -0.339579
v -4.403463 7.118581 -0.706933
v -3.508281 7.797007 -0.964567
v -0.327551 6.499344 -2.260703
v -1.927579 7.669400 -2.175556
v -1.381639 8.562979 0.250663
v -0.661188 7.886822 -0.890355
v -1.880287 8.621628 -0.587058
v -2.827174 8.336353 -0.352276
v -2.971693 7.962098 0.907241
v -2.462203 8.319615 -0.864117
v -1.753360 7.838510 -1.736351
v -1.004141 7.898831 -1.414199
v -2.887791 7.754026 -1.822116
v -2.320921 8.527624 0.440455
v -1.826185 8.124144 1.216739
v -1.147334 8.046912 0.657907
v -0.327397 7.698750 -0.114842
v -0.144041 7.591953 -1.070875
v -0.413498 6.907037 -2.214008
v -0.779704 7.463449 -1.647038
v -2.466096 7.026592 -2.524303
v -4.181041 7.610111 -0.477008
v -2.272524 7.772956 1.553577
v -1.974890 7.221621 1.787234
v 0.108466 7.503135 -0.001975
v -1.578475 6.982986 -2.455411
v -2.192911 6.509791 -2.702651
v -3.380181 6.568248 -1.822028
v -3.955770 6.718479 -1.060070
v -3.324888 6.858212 1.368731
v -3.783367 6.485063 0.436334
v -0.697169 7.365793 1.049635
v 0.027427 7.045833 0.684423
v 0.344218 6.485610 -0.530036
v -1.468919 6.278408 -2.064402
v -3.455404 6.321269 -1.370317
v -2.923060 6.489105 1.162887
v -1.869650 6.539657 1.396014
v 2.153863 5.185368 -1.048245
v 2.564226 5.144411 0.642853
v 1.122754 5.145876 -0.676881
v 2.740741 5.288013 0.918144
v 2.905853 5.649148 -0.205098
v 1.528455 5.627016 1.818413
v 2.792412 5.789839 1.034597
v 2.028225 6.226994 1.125091
v 1.267423 5.186320 1.683706
v 0.548231 6.485835 1.058441
v -0.406251 5.775849 0.192576
v 2.321208 5.445755 -1.210622
v 1.229569 6.324728 -1.045667
v 1.586534 6.783003 0.455603
v 0.655841 6.747088 0.374349
v 0.264994 6.436765 -0.093674
v 1.153703 6.689333 -0.148053
v 1.920219 6.371371 -0.578897
v 0.430781 6.311388 -0.775384
v 1.036735 6.694963 0.877276
v 2.303859 6.343324 -0.266981
v 2.269157 5.867309 -1.165596
v 0.748958 5.797732 -1.287452
v -0.260568 6.145741 0.321316
v 1.272636 6.289078 1.516047
v 2.599643 6.269976 0.484142
v 1.360746 5.803344 -1.363352
v 1.059803 5.227397 -1.387237
v 0.306878 5.192292 -0.664829
v -0.287244 5.458347 0.234444
v 0.412105 5.474084 1.408658
v 1.825178 5.336617 1.661784
v 1.652567 5.056822 -0.712986
v 0.008719 5.387385 0.462569
v 1.346380 5.445477 0.422703
v 0.699464 5.183684 1.289199
v 1.960088 5.262851 0.117136
v 2.146825 5.120807 0.544751
v 1.846516 5.196858 1.091052
v -1.526480 4.212972 2.453162
v 0.045727 4.331308 1.756749
v -1.419803 4.167058 -0.016003
v -0.994031 4.486911 1.202343
v -0.812600 4.224280 2.635655
v -0.458196 4.488737 2.596811
v -1.277500 4.472063 2.730237
v -1.368741 4.248383 -0.235970
v -1.204280 4.511146 -0.267966
v -1.274876 4.930027 0.223673
v 0.171902 4.523180 0.715245
v -0.032489 4.822172 1.506176
v -1.447622 5.180377 1.837651
v -1.076567 5.298171 1.279663
v -2.035897 4.806504 0.834393
v -0.294068 5.113756 1.646779
v -0.168456 5.043755 1.156123
v -0.431243 4.964469 2.103803
v -0.525079 5.001127 0.520510
v -1.763407 5.114312 1.201514
v 0.188605 4.507999 1.921261
v -1.547330 4.660705 -0.055870
v -2.224343 4.766549 1.535584
v -2.275075 4.268476 1.722968
v -1.117440 4.728326 2.586249
v 0.125581 4.354988 0.749982
v -0.596774 4.391866 0.049634
v -2.236104 4.276282 0.758499
v -0.060215 4.282787 1.213310
v -0.554631 4.240303 0.172818
v -2.206602 4.182485 1.386813
v -0.668813 4.236694 1.928043
v -1.928237 4.081586 1.718395
vn 0.1015 -0.8900 0.4446
vn -0.0874 -0.7915 0.6049
vn 0.2879 0.5628 -0.7749
vn 0.4461 0.8525 -0.2725
vn 0.1670 0.8233 -0.5425
vn 0.6845 0.5853 -0.4347
vn -0.1496 0.8093 -0.5680
vn -0.0267 0.8660 -0.4994
vn -0.3964 0.8568 -0.3298
vn -0.4655 0.8008 -0.3769
vn -0.3386 0.9011 -0.2709
vn -0.4001 0.8612 -0.3135
vn -0.4354 0.8583 -0.2717
vn -0.4774 0.8557 0.1995
vn -0.5728 0.8014 0.1724
vn -0.2974 0.9539 -0.0403
vn -0.0209 0.9964 0.0822
vn 0.0537 0.8996 0.4334
vn -0.2644 0.7764 0.5721
vn 0.5198 0.6621 0.5399
vn 0.4640 0.8591 -0.2161
vn 0.6584 0.6272 0.4160
vn 0.6164 0.7838 -0.0752
vn 0.7775 0.6147 -0.1326
vn 0.8021 0.2321 -0.5503
vn 0.4141 0.9099 -0.0222
vn 0.4947 0.8690 -0.0022
vn 0.7120 0.5156 -0.4767
vn 0.3345 0.7716 -0.5411
vn 0.2898 0.8152 -0.5015
vn 0.3561 0.8160 -0.4554
vn 0.0899 0.3670 -0.9259
vn -0.0439 0.9380 -0.3438
vn 0.0907 0.4152 -0.9052
vn -0.2276 0.6048 -0.7632
vn -0.5606 0.3835 -0.7339
vn -0.5859 0.5455 -0.5993
vn -0.7579 -0.3802 -0.5301
vn -0.9185 0.2897 0.2691
vn -0.8968 0.2930 0.3315
vn -0.4731 0.8592 0.1948
vn -0.5294 0.4658 0.7090
vn -0.3238 0.1223 0.9382
vn -0.2550 0.8182 0.5153
vn -0.3398 0.2055 0.9178
vn -0.1677 -0.1229 0.9781
vn 0.2474 0.4882 0.8369
vn 0.5332 0.6841 0.4978
vn 0.5621 0.5641 0.6049
vn 0.5490 0.6642 0.5073
vn 0.4054 0.9139 0.0184
vn 0.8590 -0.2457 0.4493
vn 0.8259 0.4194 0.3769
vn 0.1794 0.7576 -0.6276
vn 0.4324 0.5202 -0.7365
vn 0.2101 0.1549 -0.9653
vn 0.2268 0.2032 -0.9525
vn -0.0073 -0.6427 -0.7661
vn 0.0982 -0.8947 -0.4358
vn 0.2711 -0.7646 -0.5847
vn -0.5965 -0.0387 -0.8017
vn -0.6214 0.6591 -0.4237
vn -0.6635 0.2348 -0.7104
vn -0.7528 0.2347 -0.6150
vn -0.6121 0.0130 -0.7907
vn -0.4755 -0.6449 -0.5983
vn -0.4301 -0.7600 -0.4872
vn -0.7096 -0.5617 -0.4253
vn -0.7067 -0.4971 -0.5034
vn -0.8357 0.1546 0.5270
vn -0.6416 0.4614 0.6127
vn -0.7449 -0.4065 0.5290
vn -0.4263 -0.7479 0.5089
vn -0.2945 -0.6896 0.6616
vn 0.4121 0.4374 0.7993
vn 0.5039 -0.0568 0.8619
vn 0.4674 0.0511 0.8826
vn 0.4105 -0.6723 0.6161
vn 0.4160 -0.4411 0.7952
vn 0.8224 -0.4285 0.3742
vn 0.9046 0.4247 0.0380
vn 0.9830 -0.1395 0.1191
vn 0.7623 -0.5733 -0.3004
vn 0.2979 -0.8802 0.3694
vn 0.0856 -0.9944 0.0618
vn 0.4476 -0.8758 -0.1807
vn 0.0378 -0.9699 0.2404
vn -0.2455 -0.9461 0.2110
vn -0.2291 -0.9487 0.2178
vn 0.2096 -0.9578 0.1965
vn 0.1354 -0.9485 0.2865
vn -0.1201 -0.9690 0.2157
vn -0.1773 -0.9803 -0.0874
vn 0.1808 -0.9751 -0.1281
vn 0.0659 -0.9952 -0.0725
vn 0.2569 -0.9629 -0.0829
vn 0.3191 -0.8766 0.3601
vn -0.2033 -0.9715 0.1222
vn -0.1931 -0.9468 0.2575
vn -0.3036 -0.9483 0.0925
vn -0.0776 -0.9866 -0.1434
vn -0.1176 -0.9788 -0.1676
vn 0.0563 -0.9884 -0.1413
vn 0.1501 -0.9886 -0.0148
vn 0.2884 0.9180 -0.2722
vn 0.2169 0.9290 -0.2997
vn 0.1795 0.9166 -0.3572
vn -0.1448 0.9124 -0.3828
vn -0.2790 0.9301 -0.2389
vn -0.0265 0.9905 -0.1347
vn -0.2753 0.8910 -0.3609
vn -0.5417 0.8345 -0.1009
vn -0.5438 0.8090 0.2234
vn -0.2772 0.9113 0.3044
vn -0.0504 0.9888 0.1407
vn -0.1375 0.8122 0.5669
vn 0.2940 0.8522 0.4329
vn 0.2597 0.8202 0.5098
vn 0.4021 0.8170 0.4133
vn 0.4519 0.8874 -0.0913
vn 0.7450 0.6253 -0.2323
vn 0.8391 0.1592 -0.5201
vn 0.7242 0.5974 -0.3444
vn 0.4147 0.7974 -0.4384
vn -0.1234 0.1054 -0.9867
vn -0.1114 0.4965 -0.8609
vn -0.2671 0.5923 -0.7601
vn -0.6928 0.4648 -0.5514
vn -0.4320 0.3464 0.8327
vn -0.3323 -0.0902 0.9389
vn -0.3641 0.2668 0.8923
vn 0.4785 0.7379 0.4760
vn 0.0805 0.7792 -0.6216
vn 0.4439 0.5451 -0.7113
vn 0.2023 0.1287 -0.9708
vn 0.1444 -0.0345 -0.9889
vn 0.2126 -0.6118 -0.7619
vn -0.6663 -0.2396 -0.7061
vn -0.7314 0.6166 -0.2913
vn -0.8316 0.0373 -0.5541
vn -0.8288 0.0366 -0.5584
vn -0.6183 -0.3261 -0.7151
vn -0.8098 0.1190 0.5745
vn -0.7083 0.3141 0.6322
vn -0.8313 -0.2459 0.4984
vn -0.4060 -0.8780 0.2535
vn -0.6026 -0.7294 0.3238
vn -0.4219 -0.6691 0.6118
vn 0.4286 0.5071 0.7478
vn 0.1336 -0.3612 0.9229
vn 0.3945 0.5349 0.7472
vn 0.5191 0.0710 0.8518
vn 0.2551 -0.8923 0.3724
vn 0.6046 -0.2386 0.7600
vn 0.9119 0.4086 0.0371
vn 0.9865 -0.1258 0.1046
vn 0.7260 -0.6786 -0.1115
vn 0.6522 -0.7373 -0.1761
vn 0.7147 -0.6380 -0.2865
vn 0.3185 -0.9409 0.1155
vn 0.0525 -0.9562 -0.2881
vn -0.1392 -0.9478 0.2868
vn -0.1398 -0.9478 0.2867
vn -0.1714 -0.9804 -0.0973
vn -0.0581 -0.9924 -0.1087
vn 0.0495 -0.9662 0.2532
vn -0.0538 -0.9862 0.1564
vn -0.2950 -0.9516 0.0867
vn 0.0339 -0.9634 -0.2658
vn 0.1373 -0.9719 -0.1911
vn -0.2165 -0.9759 0.0289
vn 0.1381 -0.9203 -0.3660
vn -0.3512 -0.9236 -0.1534
vn -0.1966 -0.9579 -0.2092
vn 0.1200 -0.9878 0.0996
vn -0.3655 -0.9280 -0.0717
vn 0.0209 -0.9886 0.1491
vn 0.1649 -0.9139 0.3710
vn 0.0531 0.8650 0.4989
vn 0.1272 0.9500 0.2851
vn 0.0681 0.9422 0.3282
vn 0.7649 0.6355 0.1052
vn 0.2602 0.9630 -0.0708
vn 0.2394 0.9505 -0.1980
vn 0.0439 0.9408 -0.3362
vn -0.2175 0.9336 -0.2846
vn -0.4308 0.8230 -0.3703
vn -0.2616 0.9647 0.0297
vn -0.5135 0.8416 0.1675
vn -0.6570 0.7418 -0.1343
vn 0.2405 0.6919 0.6808
vn 0.5873 0.5662 0.5784
vn 0.6165 0.6749 0.4055
vn 0.7611 0.6435 0.0816
vn 0.8423 0.5389 0.0140
vn 0.5930 0.7098 -0.3803
vn -0.0751 0.7537 -0.6529
vn -0.4315 0.8221 -0.3714
vn 0.3814 -0.3432 -0.8584
vn -0.4588 0.1812 -0.8699
vn -0.9015 0.3720 -0.2211
vn -0.8497 -0.5258 -0.0386
vn -0.9955 0.0865 -0.0395
vn -0.5164 0.6414 0.5674
vn -0.5456 0.5889 0.5963
vn -0.1828 -0.6308 0.7541
vn 0.8749 0.4720 -0.1087
vn 0.9303 -0.1916 0.3128
vn 0.8204 -0.5611 -0.1098
vn 0.5312 -0.8433 0.0816
vn 0.5257 0.4806 -0.7019
vn 0.2543 0.5725 -0.7795
vn 0.4282 0.7173 -0.5497
vn 0.6507 -0.3213 -0.6880
vn 0.6362 -0.3723 -0.6758
vn 0.3799 -0.5175 -0.7667
vn -0.7536 -0.0398 -0.6561
vn -0.7883 0.3682 -0.4929
vn -0.4838 -0.7784 -0.4001
vn -0.2528 -0.9586 -0.1312
vn -0.7059 0.3113 0.6362
vn -0.6989 -0.0875 0.7099
vn -0.4691 -0.8738 0.1280
vn -0.4342 -0.8152 0.3832
vn 0.1377 0.4184 0.8978
vn 0.1617 -0.0722 0.9842
vn 0.5502 -0.6628 0.5079
vn 0.4998 -0.7712 0.3942
vn 0.1451 -0.9876 0.0599
vn -0.2049 -0.9500 -0.2357
vn -0.2052 -0.9512 -0.2305
vn -0.0248 -0.9745 0.2229
vn 0.0287 -0.9692 0.2444
vn 0.1477 -0.9383 -0.3126
vn 0.2630 -0.9518 0.1580
vn 0.1336 -0.9910 0.0098
vn 0.0193 -0.9997 -0.0136
vn -0.1373 -0.9538 -0.2673
vn 0.1630 -0.8975 -0.4099
vn 0.3783 -0.9248 -0.0415
usemtl tree_green
s off
f 13//1 6//1 8//1
f 2//2 54//2 15//2
f 36//3 27//3 28//3
f 22//4 28//4 23//4
f 23//5 28//5 27//5
f 22//6 36//6 28//6
f 27//7 26//7 23//7
f 27//8 29//8 26//8
f 29//9 18//9 26//9
f 29//10 4//10 18//10
f 26//11 24//11 23//11
f 18//12 24//12 26//12
f 18//13 38//13 24//13
f 38//14 25//14 24//14
f 25//15 30//15 24//15
f 24//16 30//16 23//16
f 30//17 21//17 23//17
f 30//18 31//18 21//18
f 25//19 31//19 30//19
f 31//20 32//20 21//20
f 21//21 22//21 23//21
f 32//22 33//22 21//22
f 21//23 33//23 22//23
f 14//24 34//24 41//24
f 19//25 35//25 14//25
f 41//26 34//26 33//26
f 34//27 22//27 33//27
f 14//28 35//28 34//28
f 35//29 36//29 34//29
f 34//30 36//30 22//30
f 20//31 27//31 36//31
f 43//32 37//32 42//32
f 20//33 29//33 27//33
f 42//34 37//34 20//34
f 37//35 29//35 20//35
f 37//36 4//36 29//36
f 17//37 38//37 18//37
f 45//38 16//38 17//38
f 17//39 16//39 38//39
f 16//40 3//40 38//40
f 38//41 3//41 25//41
f 46//42 39//42 25//42
f 2//43 40//43 46//43
f 39//44 31//44 25//44
f 46//45 40//45 39//45
f 2//46 15//46 40//46
f 40//47 31//47 39//47
f 48//48 41//48 31//48
f 31//49 41//49 32//49
f 48//50 49//50 41//50
f 41//51 33//51 32//51
f 13//52 12//52 49//52
f 49//53 12//53 41//53
f 35//54 42//54 36//54
f 36//55 42//55 20//55
f 35//56 19//56 42//56
f 19//57 43//57 42//57
f 7//58 51//58 19//58
f 19//59 51//59 43//59
f 51//60 11//60 43//60
f 43//61 44//61 37//61
f 4//62 17//62 18//62
f 37//63 44//63 4//63
f 44//64 45//64 4//64
f 4//65 45//65 17//65
f 43//66 11//66 44//66
f 11//67 52//67 44//67
f 44//68 52//68 45//68
f 52//69 16//69 45//69
f 16//70 46//70 3//70
f 3//71 46//71 25//71
f 16//72 47//72 46//72
f 47//73 53//73 46//73
f 46//74 53//74 2//74
f 40//75 48//75 31//75
f 40//76 15//76 48//76
f 15//77 49//77 48//77
f 15//78 54//78 49//78
f 54//79 13//79 49//79
f 13//80 50//80 12//80
f 12//81 14//81 41//81
f 12//82 50//82 14//82
f 50//83 19//83 14//83
f 13//84 8//84 50//84
f 8//85 7//85 50//85
f 50//86 7//86 19//86
f 1//87 51//87 7//87
f 1//88 10//88 51//88
f 10//89 11//89 51//89
f 10//90 52//90 11//90
f 10//91 9//91 52//91
f 52//92 9//92 16//92
f 9//93 47//93 16//93
f 10//94 53//94 9//94
f 9//95 53//95 47//95
f 10//96 5//96 53//96
f 5//97 2//97 53//97
f 8//98 1//98 7//98
f 6//99 1//99 8//99
f 5//100 54//100 2//100
f 10//101 1//101 5//101
f 5//102 1//102 54//102
f 1//103 6//103 54//103
f 54//104 6//104 13//104
f 75//105 72//105 68//105
f 68//106 72//106 71//106
f 72//107 67//107 71//107
f 67//108 73//108 71//108
f 71//109 73//109 70//109
f 71//110 69//110 68//110
f 70//111 69//111 71//111
f 70//112 78//112 69//112
f 69//113 78//113 64//113
f 64//114 74//114 69//114
f 69//115 74//115 68//115
f 64//116 79//116 74//116
f 74//117 79//117 62//117
f 74//118 62//118 68//118
f 62//119 80//119 68//119
f 68//120 80//120 75//120
f 59//121 75//121 80//121
f 66//122 76//122 59//122
f 59//123 76//123 75//123
f 76//124 72//124 75//124
f 82//125 77//125 81//125
f 81//126 77//126 67//126
f 77//127 73//127 67//127
f 65//128 78//128 70//128
f 85//129 79//129 64//129
f 63//130 60//130 85//130
f 85//131 60//131 79//131
f 61//132 80//132 62//132
f 76//133 81//133 72//133
f 72//134 81//134 67//134
f 76//135 66//135 81//135
f 66//136 82//136 81//136
f 66//137 55//137 82//137
f 82//138 83//138 77//138
f 73//139 65//139 70//139
f 77//140 83//140 73//140
f 83//141 84//141 73//141
f 73//142 84//142 65//142
f 65//143 85//143 78//143
f 78//144 85//144 64//144
f 65//145 84//145 85//145
f 84//146 88//146 85//146
f 88//147 90//147 85//147
f 85//148 90//148 63//148
f 60//149 62//149 79//149
f 63//150 86//150 60//150
f 60//151 61//151 62//151
f 60//152 86//152 61//152
f 63//153 58//153 86//153
f 86//154 58//154 61//154
f 61//155 59//155 80//155
f 58//156 59//156 61//156
f 58//157 56//157 59//157
f 56//158 55//158 59//158
f 59//159 55//159 66//159
f 91//160 87//160 55//160
f 87//161 82//161 55//161
f 91//162 89//162 87//162
f 89//163 57//163 87//163
f 87//164 57//164 82//164
f 57//165 83//165 82//165
f 89//166 88//166 57//166
f 57//167 88//167 83//167
f 88//168 84//168 83//168
f 89//169 90//169 88//169
f 89//170 63//170 90//170
f 56//171 91//171 55//171
f 56//172 92//172 91//172
f 92//173 89//173 91//173
f 89//174 93//174 63//174
f 93//175 58//175 63//175
f 89//176 92//176 93//176
f 92//177 56//177 93//177
f 93//178 56//178 58//178
f 118//179 111//179 106//179
f 106//180 111//180 107//180
f 111//181 109//181 107//181
f 109//182 105//182 110//182
f 109//183 110//183 107//183
f 110//184 112//184 107//184
f 112//185 103//185 107//185
f 103//186 113//186 107//186
f 108//187 113//187 103//187
f 113//188 106//188 107//188
f 113//189 116//189 106//189
f 108//190 116//190 113//190
f 99//191 111//191 118//191
f 99//192 114//192 111//192
f 114//193 109//193 111//193
f 114//194 105//194 109//194
f 104//195 110//195 105//195
f 104//196 112//196 110//196
f 102//197 115//197 103//197
f 115//198 108//198 103//198
f 120//199 101//199 102//199
f 102//200 101//200 115//200
f 121//201 116//201 108//201
f 124//202 117//202 121//202
f 121//203 117//203 116//203
f 100//204 118//204 116//204
f 116//205 118//205 106//205
f 94//206 98//206 100//206
f 114//207 119//207 105//207
f 105//208 119//208 104//208
f 95//209 122//209 114//209
f 114//210 122//210 119//210
f 104//211 120//211 112//211
f 112//212 120//212 103//212
f 120//213 102//213 103//213
f 104//214 119//214 120//214
f 119//215 123//215 120//215
f 123//216 101//216 120//216
f 101//217 121//217 115//217
f 115//218 121//218 108//218
f 101//219 96//219 121//219
f 96//220 124//220 121//220
f 117//221 100//221 116//221
f 117//222 94//222 100//222
f 124//223 126//223 117//223
f 126//224 94//224 117//224
f 100//225 99//225 118//225
f 100//226 98//226 99//226
f 98//227 114//227 99//227
f 98//228 95//228 114//228
f 125//229 122//229 95//229
f 97//230 122//230 125//230
f 97//231 119//231 122//231
f 97//232 123//232 119//232
f 97//233 96//233 123//233
f 123//234 96//234 101//234
f 96//235 97//235 124//235
f 98//236 125//236 95//236
f 98//237 94//237 125//237
f 94//238 97//238 125//238
f 97//239 126//239 124//239
f 97//240 94//240 126//240
o trunk_Cube
v 0.340516 -0.098548 0.305424
v -0.089946 2.610363 -0.561469
v -0.441249 -0.082762 -0.005549
v 0.436509 -0.016296 0.122729
v -0.294294 2.155507 -0.064743
v 0.217478 3.712309 -0.057667
v 0.142451 3.438062 0.076541
v -0.438329 4.076463 -0.452600
v 0.116801 3.766774 -0.283963
v -0.507642 4.138746 -0.313611
v 1.333483 5.537045 0.436464
v 0.121609 4.225135 0.114061
v 1.211409 4.966010 0.336620
v 0.914331 5.032831 0.212728
v -1.754187 6.838524 -0.529435
v -1.633914 5.465353 -0.446858
v -1.453903 5.903440 -0.210427
v -1.668283 5.737219 -0.178573
v 1.491705 5.450353 0.273556
v -1.940932 6.751010 -0.570716
v -1.977958 6.763623 -0.337211
v -0.837624 3.762901 0.990048
v -0.167270 2.957019 0.099976
v -0.288972 3.297517 0.021141
v -0.974271 3.937155 0.762091
v -0.513479 3.757764 0.613567
v -0.196834 3.600416 0.059938
v -0.998032 3.632163 0.844129
v -1.198488 4.600934 0.964108
v -0.213948 -0.051353 -0.418258
v 0.134605 -0.091952 -0.387297
v -0.000596 4.366974 -0.156325
v -0.921450 4.183528 0.923785
v -1.277076 4.572093 1.120934
v 0.097182 0.055800 0.458801
v -1.916408 6.132310 -0.560473
v -1.788867 6.873898 -0.312859
v 1.309177 4.975336 0.112276
v 1.093014 4.939596 -0.078048
v -0.001671 2.696138 0.017880
v -0.255494 0.800430 -0.327404
v 0.235678 2.864437 -0.064471
v 0.369958 -0.059265 -0.253049
v -0.583324 4.745394 -0.507435
v 1.339555 5.522276 0.106375
v -0.267176 -0.063115 0.397082
v 0.234016 2.463877 -0.356688
v -0.480533 4.321565 -0.092632
v 0.098379 4.274445 -0.268854
v -1.517479 6.016269 -0.519572
v 1.225771 5.640324 0.244648
v -1.095796 4.629941 1.110191
v 0.186528 3.837639 0.124819
v -0.131511 4.379718 -0.011798
vn 0.0784 -0.6378 0.7662
vn 0.5309 -0.0105 -0.8474
vn -0.0477 -0.9965 0.0692
vn -0.9168 0.0706 0.3929
vn 0.1007 0.1104 -0.9888
vn 0.8637 0.0924 0.4954
vn -0.8723 -0.0326 0.4878
vn -0.9182 0.0499 -0.3930
vn 0.9937 0.0633 -0.0924
vn 0.5779 -0.6237 0.5264
vn 0.9991 0.0217 -0.0355
vn 0.9879 0.0200 0.1538
vn 0.5626 0.0964 -0.8211
vn 0.3653 0.1550 -0.9179
vn 0.1254 0.0828 -0.9886
vn -0.3535 -0.3006 -0.8858
vn -0.3126 0.0773 0.9467
vn -0.9579 -0.1521 0.2434
vn -0.7285 0.3423 0.5934
vn 0.5685 0.8140 0.1190
vn -0.1949 0.6666 -0.7195
vn -0.7239 0.6671 0.1759
vn -0.6902 -0.5506 0.4695
vn 0.7209 0.6855 0.1019
vn 0.6175 0.6019 0.5063
vn 0.0281 0.1531 0.9878
vn -0.3770 0.9026 -0.2078
vn 0.3652 -0.0605 0.9290
vn -0.6454 -0.0543 0.7619
vn 0.3420 0.9370 -0.0707
vn -0.7744 -0.1074 -0.6235
vn -0.0038 -0.7427 0.6696
vn -0.3026 0.9528 0.0236
vn 0.0935 -0.1093 0.9896
vn 0.6622 0.4939 -0.5636
vn -0.0512 0.5556 -0.8299
vn 0.7362 0.2460 0.6305
vn -0.8719 -0.1530 -0.4651
vn -0.9058 -0.2170 0.3640
vn 0.0984 -0.0126 -0.9951
vn 0.1957 0.0446 -0.9797
vn 0.9449 0.3179 -0.0783
vn 0.8314 -0.4363 0.3442
vn 0.6607 0.0010 -0.7506
vn -0.5698 0.3316 -0.7519
vn -0.3981 -0.0748 0.9143
vn -0.5388 0.1654 0.8261
vn 0.4964 -0.0089 -0.8681
vn -0.3470 -0.0890 -0.9336
vn -0.0186 -0.9998 -0.0040
vn -0.1031 -0.9859 -0.1318
vn 0.1709 -0.9834 -0.0602
vn -0.8762 0.0087 -0.4819
vn 0.7594 -0.6435 -0.0960
vn 0.9827 0.0456 -0.1793
vn -0.0577 0.1111 0.9921
vn 0.9178 0.1040 -0.3833
vn 0.4116 -0.1539 0.8983
vn -0.5251 -0.0617 -0.8488
vn -0.0584 -0.0941 -0.9938
vn -0.4377 0.0180 0.8989
vn -0.1666 -0.0005 0.9860
vn 0.2642 -0.0508 -0.9631
vn -0.4264 0.4058 0.8084
vn -0.0263 0.3117 -0.9498
vn 0.6383 -0.4178 -0.6465
vn -0.1964 -0.0057 0.9805
vn -0.3341 0.2158 0.9175
vn -0.6222 0.5416 0.5653
vn 0.3948 0.8749 0.2805
vn -0.7553 -0.6498 -0.0855
vn -0.6778 -0.5235 0.5163
vn 0.6599 0.4795 -0.5784
vn 0.5842 0.7885 -0.1924
vn -0.4879 0.8640 -0.1240
vn 0.6667 -0.0739 0.7416
vn 0.6883 0.4265 0.5868
vn -0.1003 -0.1084 0.9890
vn 0.1330 -0.2197 0.9665
vn 0.4320 0.9018 -0.0092
vn -0.5765 0.2740 -0.7698
vn -0.7698 -0.3918 -0.5039
vn 0.1373 -0.6806 0.7197
vn 0.6263 -0.7793 -0.0218
vn -0.2634 0.3119 0.9129
vn -0.2061 -0.1139 0.9719
vn 0.5940 0.7938 -0.1303
vn 0.3261 -0.0068 -0.9453
vn -0.9972 -0.0753 -0.0027
vn 0.4923 0.4014 -0.7724
vn 0.9229 0.2323 0.3069
vn -0.4406 -0.3715 0.8172
vn -0.8297 -0.0838 -0.5519
vn 0.5831 0.1209 0.8034
vn -0.9090 -0.3453 0.2334
vn -0.9871 -0.0417 -0.1543
vn 0.9550 0.2762 0.1078
vn 0.6190 -0.2618 0.7405
vn 0.7183 -0.0854 -0.6905
vn -0.2134 0.1531 0.9649
vn 0.2142 0.1687 0.9621
usemtl tree_bark_dark
s off
f 172//241 127//241 161//241
f 128//242 173//242 157//242
f 127//243 172//243 129//243
f 129//244 172//244 131//244
f 156//245 167//245 157//245
f 130//246 168//246 127//246
f 150//247 136//247 131//247
f 131//248 167//248 129//248
f 168//249 130//249 173//249
f 139//250 179//250 132//250
f 132//251 168//251 173//251
f 132//252 179//252 168//252
f 135//253 173//253 128//253
f 134//254 135//254 128//254
f 176//255 170//255 162//255
f 142//256 162//256 134//256
f 153//257 138//257 174//257
f 136//258 150//258 174//258
f 177//259 140//259 137//259
f 137//260 145//260 177//260
f 175//261 158//261 140//261
f 140//262 171//262 175//262
f 174//263 144//263 142//263
f 176//264 143//264 158//264
f 143//265 180//265 158//265
f 180//266 143//266 144//266
f 141//267 146//267 163//267
f 168//268 149//268 166//268
f 131//269 149//269 150//269
f 151//270 152//270 153//270
f 150//271 154//271 151//271
f 149//272 148//272 154//272
f 155//273 160//273 178//273
f 148//274 178//274 160//274
f 159//275 155//275 178//275
f 159//276 152//276 151//276
f 148//277 152//277 159//277
f 160//278 155//278 151//278
f 162//279 144//279 147//279
f 146//280 176//280 162//280
f 141//281 176//281 146//281
f 163//282 143//282 176//282
f 145//283 139//283 164//283
f 145//284 164//284 165//284
f 171//285 140//285 177//285
f 140//286 139//286 137//286
f 131//287 172//287 166//287
f 157//288 173//288 169//288
f 157//289 167//289 128//289
f 127//290 129//290 157//290
f 157//291 129//291 156//291
f 127//292 157//292 169//292
f 129//293 167//293 156//293
f 164//294 139//294 132//294 135//294
f 173//295 130//295 169//295
f 163//296 147//296 144//296 143//296
f 132//297 173//297 135//297
f 168//298 179//298 133//298
f 128//299 167//299 134//299
f 162//300 170//300 134//300
f 153//301 174//301 150//301
f 138//302 153//302 179//302
f 165//303 135//303 134//303
f 165//304 134//304 175//304
f 175//305 171//305 165//305
f 165//306 164//306 135//306
f 138//307 179//307 139//307
f 139//308 140//308 138//308
f 140//309 158//309 138//309
f 158//310 180//310 138//310
f 142//311 134//311 136//311
f 136//312 174//312 142//312
f 176//313 158//313 170//313
f 171//314 177//314 145//314
f 163//315 146//315 147//315
f 148//316 168//316 133//316
f 133//317 152//317 148//317
f 153//318 133//318 179//318
f 166//319 149//319 131//319
f 152//320 133//320 153//320
f 150//321 151//321 153//321
f 150//322 149//322 154//322
f 149//323 168//323 148//323
f 130//324 127//324 169//324
f 174//325 138//325 180//325
f 180//326 144//326 174//326
f 175//327 170//327 158//327
f 170//328 175//328 134//328
f 134//329 167//329 131//329 136//329
f 151//330 155//330 159//330
f 159//331 178//331 148//331
f 148//332 160//332 154//332
f 151//333 154//333 160//333
f 127//334 168//334 161//334
f 162//335 142//335 144//335
f 162//336 147//336 146//336
f 163//337 176//337 141//337
f 145//338 137//338 139//338
f 171//339 145//339 165//339
f 166//340 172//340 161//340
f 166//341 161//341 168//341
